<?xml version="1.0" encoding="UTF-8" standalone="no"?>
<!-- Created with Inkscape (http://www.inkscape.org/) -->

<svg
   width="1280"
   height="720"
   viewBox="0 0 1280 720"
   version="1.1"
   id="svg1"
   inkscape:version="1.3.2 (091e20e, 2023-11-25, custom)"
   sodipodi:docname="Holy1IS.svg"
   xmlns:inkscape="http://www.inkscape.org/namespaces/inkscape"
   xmlns:sodipodi="http://sodipodi.sourceforge.net/DTD/sodipodi-0.dtd"
   xmlns="http://www.w3.org/2000/svg"
   xmlns:svg="http://www.w3.org/2000/svg">
  <sodipodi:namedview
     id="namedview1"
     pagecolor="#000000"
     bordercolor="#000000"
     borderopacity="0.25"
     inkscape:showpageshadow="2"
     inkscape:pageopacity="0.0"
     inkscape:pagecheckerboard="0"
     inkscape:deskcolor="#d1d1d1"
     inkscape:document-units="mm"
     inkscape:zoom="0.44631734"
     inkscape:cx="951.11697"
     inkscape:cy="619.51435"
     inkscape:window-width="1920"
     inkscape:window-height="1009"
     inkscape:window-x="-8"
     inkscape:window-y="-8"
     inkscape:window-maximized="1"
     inkscape:current-layer="svg1" />
  <defs
     id="defs1" />
  <text
     xml:space="preserve"
     style="font-weight:bold;font-size:69.3332px;font-family:Arial;-inkscape-font-specification:'Arial, Bold';letter-spacing:0px;word-spacing:0px;fill:#ffffff;stroke-width:15.1181"
     x="66.494614"
     y="218.412"
     id="text1"><tspan
       sodipodi:role="line"
       id="tspan1"
       style="stroke-width:15.1181"
       x="66.494614"
       y="218.412">Holy, Holy, Holy Lord God of Hosts</tspan></text>
  <text
     xml:space="preserve"
     style="font-weight:bold;font-size:69.3332px;font-family:Arial;-inkscape-font-specification:'Arial, Bold';letter-spacing:0px;word-spacing:0px;fill:#ffffff;stroke-width:15.1181"
     x="65.420883"
     y="433.17233"
     id="text2"><tspan
       sodipodi:role="line"
       id="tspan2"
       style="stroke-width:15.1181"
       x="65.420883"
       y="433.17233">Heaven and earth are full of your</tspan></text>
  <text
     xml:space="preserve"
     style="font-weight:bold;font-size:69.3332px;font-family:Arial;-inkscape-font-specification:'Arial, Bold';letter-spacing:0px;word-spacing:0px;fill:#ffffff;stroke-width:15.1181"
     x="68.276566"
     y="647.08679"
     id="text3"><tspan
       sodipodi:role="line"
       id="tspan3"
       style="stroke-width:15.1181"
       x="68.276566"
       y="647.08679">glory. Hosanna in the highest.</tspan></text>
  <path
     style="font-size:38.8056px;font-family:'Joseph Pothier A';-inkscape-font-specification:'Joseph Pothier A, Normal';letter-spacing:0px;word-spacing:0px;fill:#ffffff;stroke-width:15.1181"
     d="M 63.752335,65.215457 H 1216.2477 v 1.46667 H 63.752335 Z"
     id="text4" />
  <path
     style="font-size:38.8056px;font-family:'Joseph Pothier A';-inkscape-font-specification:'Joseph Pothier A, Normal';letter-spacing:0px;word-spacing:0px;fill:#ffffff;stroke-width:15.1181"
     d="M 63.752335,92.202157 H 1216.2477 v 1.46667 H 63.752335 Z"
     id="path6" />
  <path
     style="font-size:38.8056px;font-family:'Joseph Pothier A';-inkscape-font-specification:'Joseph Pothier A, Normal';letter-spacing:0px;word-spacing:0px;fill:#ffffff;stroke-width:15.1181"
     d="M 63.752335,119.33552 H 1216.2477 v 1.46667 H 63.752335 Z"
     id="path7" />
  <path
     style="font-size:38.8056px;font-family:'Joseph Pothier A';-inkscape-font-specification:'Joseph Pothier A, Normal';letter-spacing:0px;word-spacing:0px;fill:#ffffff;stroke-width:15.1181"
     d="M 63.752335,146.46889 H 1216.2477 v 1.46667 H 63.752335 Z"
     id="path8" />
  <path
     style="font-size:38.8056px;font-family:'Joseph Pothier A';-inkscape-font-specification:'Joseph Pothier A, Normal';letter-spacing:0px;word-spacing:0px;fill:#ffffff;stroke-width:15.1181"
     d="m 63.752335,279.97477 1152.495365,0.001 v 1.46666 l -1152.495365,-0.001 z"
     id="text5" />
  <path
     style="font-size:38.8056px;font-family:'Joseph Pothier A';-inkscape-font-specification:'Joseph Pothier A, Normal';letter-spacing:0px;word-spacing:0px;fill:#ffffff;stroke-width:15.1181"
     d="m 63.752335,306.96146 1152.495365,0.001 v 1.46667 l -1152.495365,-10e-4 z"
     id="path34" />
  <path
     style="font-size:38.8056px;font-family:'Joseph Pothier A';-inkscape-font-specification:'Joseph Pothier A, Normal';letter-spacing:0px;word-spacing:0px;fill:#ffffff;stroke-width:15.1181"
     d="m 63.752335,334.09483 1152.495365,10e-4 v 1.46667 L 63.752335,335.5615 Z"
     id="path35" />
  <path
     style="font-size:38.8056px;font-family:'Joseph Pothier A';-inkscape-font-specification:'Joseph Pothier A, Normal';letter-spacing:0px;word-spacing:0px;fill:#ffffff;stroke-width:15.1181"
     d="m 63.752335,361.22819 1152.495365,0.001 v 1.46667 l -1152.495365,-10e-4 z"
     id="path36" />
  <path
     style="font-size:38.8056px;font-family:'Joseph Pothier A';-inkscape-font-specification:'Joseph Pothier A, Normal';letter-spacing:0px;word-spacing:0px;fill:#ffffff;stroke-width:15.1181"
     d="m 64.373635,494.73505 1151.872565,10e-4 v 1.46668 l -1151.872565,-10e-4 z"
     id="text6"
     sodipodi:nodetypes="ccccc" />
  <path
     style="font-size:38.8056px;font-family:'Joseph Pothier A';-inkscape-font-specification:'Joseph Pothier A, Normal';letter-spacing:0px;word-spacing:0px;fill:#ffffff;stroke-width:15.1181"
     d="m 64.373635,521.72178 1151.872565,3.4e-4 v 1.46665 L 64.373635,523.18843 Z"
     id="path48"
     sodipodi:nodetypes="ccccc" />
  <path
     style="font-size:38.8056px;font-family:'Joseph Pothier A';-inkscape-font-specification:'Joseph Pothier A, Normal';letter-spacing:0px;word-spacing:0px;fill:#ffffff;stroke-width:15.1181"
     d="m 64.373635,548.85513 1151.872565,10e-4 v 1.46668 l -1151.872565,-10e-4 z"
     id="path49"
     sodipodi:nodetypes="ccccc" />
  <path
     style="font-size:38.8056px;font-family:'Joseph Pothier A';-inkscape-font-specification:'Joseph Pothier A, Normal';letter-spacing:0px;word-spacing:0px;fill:#ffffff;stroke-width:15.1181"
     d="m 64.373635,575.98851 1151.872565,10e-4 v 1.46665 l -1151.872565,-10e-4 z"
     id="path50"
     sodipodi:nodetypes="ccccc" />
  <path
     style="font-size:38.8056px;font-family:'Joseph Pothier A';-inkscape-font-specification:'Joseph Pothier A, Normal';letter-spacing:0px;word-spacing:0px;fill:#ffffff;stroke-width:15.1181"
     d="m 71.525675,94.495487 c 0.29333,1.17334 0.97778,2.29778 2.05333,3.37334 1.07556,0.97778 2.20001,1.46667 3.37334,1.46667 1.85778,0 3.81334,-0.78222 5.86667,-2.34667 v 13.200013 c -1.36888,1.17334 -2.88444,1.76001 -4.54667,1.76001 -0.58667,0 -1.17333,-0.0978 -1.76,-0.29333 -4.00889,-1.36889 -6.01334,-3.56889 -6.01334,-6.60001 V 82.322157 c 0.0978,-1.07556 0.3422,-2.00445 0.73334,-2.78668 0.87999,-2.05333 2.64,-3.37333 5.28,-3.96 0.58667,-0.19555 1.17333,-0.29333 1.76,-0.29333 1.76,0 3.12889,0.58667 4.10667,1.76 v 12.76002 c -1.76,-1.27112 -3.56889,-1.90667 -5.42667,-1.90667 -1.27111,0 -2.54223,0.53777 -3.81334,1.61333 -1.17333,1.07556 -1.71111,2.24889 -1.61333,3.52001 z"
     id="path9" />
  <path
     style="font-size:38.8056px;font-family:'Joseph Pothier A';-inkscape-font-specification:'Joseph Pothier A, Normal';letter-spacing:0px;word-spacing:0px;fill:#ffffff;stroke-width:15.1181"
     d="m 129.89946,101.58884 c 0.78222,-1.857783 2.98222,-2.786673 6.60001,-2.786673 3.52,0 5.67112,0.92889 6.45334,2.786673 v 12.90668 c -0.29333,0 -1.02667,-0.24446 -2.2,-0.73334 -1.17334,-0.48889 -2.59112,-0.73333 -4.25334,-0.73333 -1.76001,0 -3.22667,0.24446 -4.40001,0.73333 -1.17334,0.48889 -1.90667,0.73334 -2.2,0.73334 z"
     id="path10" />
  <path
     style="font-size:38.8056px;font-family:'Joseph Pothier A';-inkscape-font-specification:'Joseph Pothier A, Normal';letter-spacing:0px;word-spacing:0px;fill:#ffffff;stroke-width:15.1181"
     d="m 195.16671,101.58884 1.76001,-1.02667 v 39.30671 h -1.76001 z"
     id="path11"
     sodipodi:nodetypes="ccccc" />
  <path
     style="font-size:38.8056px;font-family:'Joseph Pothier A';-inkscape-font-specification:'Joseph Pothier A, Normal';letter-spacing:0px;word-spacing:0px;fill:#ffffff;stroke-width:15.1181"
     d="m 195.16671,101.58884 c 0.78223,-1.857783 2.98223,-2.786673 6.60001,-2.786673 3.52001,0 5.67112,0.92889 6.45334,2.786673 v 12.90668 c -0.29332,0 -1.02666,-0.24446 -2.2,-0.73334 -1.17333,-0.48889 -2.59111,-0.73333 -4.25334,-0.73333 -1.76,0 -3.22667,0.24446 -4.4,0.73333 -1.17334,0.48889 -1.90667,0.73334 -2.20001,0.73334 z"
     id="path12" />
  <path
     style="font-size:38.8056px;font-family:'Joseph Pothier A';-inkscape-font-specification:'Joseph Pothier A, Normal';letter-spacing:0px;word-spacing:0px;fill:#ffffff;stroke-width:15.1181"
     d="m 227.87363,109.94885 c -0.78223,0 -1.36889,-0.19555 -1.76,-0.58667 -0.19556,-0.29333 -0.34224,-0.78222 -0.44001,-1.46667 0,-0.58667 0.14669,-1.02667 0.44001,-1.32 0.58666,-0.58667 1.17333,-0.88 1.76,-0.88 0.88,0 1.46667,0.29333 1.76,0.88 0.29333,0.29333 0.44,0.73333 0.44,1.32 0,0.39111 -0.14668,0.88 -0.44,1.46667 -0.39111,0.39111 -0.92889,0.58667 -1.61333,0.58667 z"
     id="path14" />
  <path
     style="font-size:38.8056px;font-family:'Joseph Pothier A';-inkscape-font-specification:'Joseph Pothier A, Normal';letter-spacing:0px;word-spacing:0px;fill:#ffffff;stroke-width:15.1181"
     d="m 208.22016,115.22885 c 0.78222,-1.85778 2.98222,-2.78667 6.60001,-2.78667 3.52,0 5.67112,0.92889 6.45334,2.78667 v 12.90668 c -0.29333,0 -1.02667,-0.24446 -2.2,-0.73333 -1.17334,-0.48889 -2.59112,-0.73333 -4.25334,-0.73333 -1.76,0 -3.22667,0.24446 -4.40001,0.73333 -1.17333,0.48889 -1.90667,0.73333 -2.2,0.73333 z"
     id="path13" />
  <path
     style="font-size:38.8056px;font-family:'Joseph Pothier A';-inkscape-font-specification:'Joseph Pothier A, Normal';letter-spacing:0px;word-spacing:0px;fill:#ffffff;stroke-width:15.1181"
     d="m 227.87363,136.34887 c -0.78223,0 -1.36889,-0.19555 -1.76,-0.58666 -0.19556,-0.29333 -0.34224,-0.78222 -0.44001,-1.46667 0,-0.58667 0.14669,-1.02667 0.44001,-1.32 0.58666,-0.58667 1.17333,-0.88 1.76,-0.88 0.88,0 1.46667,0.29333 1.76,0.88 0.29333,0.29333 0.44,0.73333 0.44,1.32 0,0.39111 -0.14668,0.88 -0.44,1.46667 -0.39111,0.39111 -0.92889,0.58666 -1.61333,0.58666 z"
     id="path15" />
  <path
     style="font-size:38.8056px;font-family:'Joseph Pothier A';-inkscape-font-specification:'Joseph Pothier A, Normal';letter-spacing:0px;word-spacing:0px;fill:#ffffff;stroke-width:15.1181"
     d="m 253.2472,58.322117 h 1.46667 v 16.57335 h -1.46667 z"
     id="path16" />
  <path
     style="font-size:38.8056px;font-family:'Joseph Pothier A';-inkscape-font-specification:'Joseph Pothier A, Normal';letter-spacing:0px;word-spacing:0px;fill:#ffffff;stroke-width:15.1181"
     d="m 312.79435,101.58884 c 0.78222,-1.857783 2.98222,-2.786673 6.6,-2.786673 3.52001,0 5.67112,0.92889 6.45334,2.786673 v 12.90668 c -0.29332,0 -1.02666,-0.24446 -2.2,-0.73334 -1.17333,-0.48889 -2.59111,-0.73333 -4.25334,-0.73333 -1.76,0 -3.22666,0.24446 -4.4,0.73333 -1.17334,0.48889 -1.90667,0.73334 -2.2,0.73334 z"
     id="path17" />
  <path
     style="font-size:38.8056px;font-family:'Joseph Pothier A';-inkscape-font-specification:'Joseph Pothier A, Normal';letter-spacing:0px;word-spacing:0px;fill:#ffffff;stroke-width:15.1181"
     d="m 378.06159,101.58884 1.76,-1.02667 v 39.30671 h -1.76 z"
     id="path18"
     sodipodi:nodetypes="ccccc" />
  <path
     style="font-size:38.8056px;font-family:'Joseph Pothier A';-inkscape-font-specification:'Joseph Pothier A, Normal';letter-spacing:0px;word-spacing:0px;fill:#ffffff;stroke-width:15.1181"
     d="m 378.06159,101.58884 c 0.78225,-1.857783 2.98224,-2.786673 6.6,-2.786673 3.52003,0 5.67115,0.92889 6.45336,2.786673 v 12.90668 c -0.29329,0 -1.02667,-0.24446 -2.19999,-0.73334 -1.17336,-0.48889 -2.59113,-0.73333 -4.25337,-0.73333 -1.76001,0 -3.22666,0.24446 -4.39998,0.73333 -1.17336,0.48889 -1.9067,0.73334 -2.20002,0.73334 z"
     id="path19" />
  <path
     style="font-size:38.8056px;font-family:'Joseph Pothier A';-inkscape-font-specification:'Joseph Pothier A, Normal';letter-spacing:0px;word-spacing:0px;fill:#ffffff;stroke-width:15.1181"
     d="m 410.76849,109.94885 c -0.78221,0 -1.36887,-0.19555 -1.76001,-0.58667 -0.1954,-0.29333 -0.34205,-0.78222 -0.43998,-1.46667 0,-0.58667 0.14665,-1.02667 0.43998,-1.32 0.58669,-0.58667 1.17335,-0.88 1.76001,-0.88 0.87999,0 1.46668,0.29333 1.76001,0.88 0.29328,0.29333 0.44002,0.73333 0.44002,1.32 0,0.39111 -0.14666,0.88 -0.44002,1.46667 -0.39111,0.39111 -0.9289,0.58667 -1.61334,0.58667 z"
     id="path21" />
  <path
     style="font-size:38.8056px;font-family:'Joseph Pothier A';-inkscape-font-specification:'Joseph Pothier A, Normal';letter-spacing:0px;word-spacing:0px;fill:#ffffff;stroke-width:15.1181"
     d="m 391.11506,115.22885 c 0.78221,-1.85778 2.9822,-2.78667 6.6,-2.78667 3.51999,0 5.67111,0.92889 6.45335,2.78667 v 12.90668 c -0.29329,0 -1.02667,-0.24446 -2.20002,-0.73333 -1.17332,-0.48889 -2.59109,-0.73333 -4.25333,-0.73333 -1.76001,0 -3.22666,0.24446 -4.40001,0.73333 -1.17332,0.48889 -1.90666,0.73333 -2.19999,0.73333 z"
     id="path20" />
  <path
     style="font-size:38.8056px;font-family:'Joseph Pothier A';-inkscape-font-specification:'Joseph Pothier A, Normal';letter-spacing:0px;word-spacing:0px;fill:#ffffff;stroke-width:15.1181"
     d="m 410.76849,136.34887 c -0.78221,0 -1.36887,-0.19555 -1.76001,-0.58666 -0.1954,-0.29333 -0.34205,-0.78222 -0.43998,-1.46667 0,-0.58667 0.14665,-1.02667 0.43998,-1.32 0.58669,-0.58667 1.17335,-0.88 1.76001,-0.88 0.87999,0 1.46668,0.29333 1.76001,0.88 0.29328,0.29333 0.44002,0.73333 0.44002,1.32 0,0.39111 -0.14666,0.88 -0.44002,1.46667 -0.39111,0.39111 -0.9289,0.58666 -1.61334,0.58666 z"
     id="path22" />
  <path
     style="font-size:38.8056px;font-family:'Joseph Pothier A';-inkscape-font-specification:'Joseph Pothier A, Normal';letter-spacing:0px;word-spacing:0px;fill:#ffffff;stroke-width:15.1181"
     d="m 436.14208,58.322117 h 1.46669 v 16.57335 h -1.46669 z"
     id="path23" />
  <path
     style="font-size:38.8056px;font-family:'Joseph Pothier A';-inkscape-font-specification:'Joseph Pothier A, Normal';letter-spacing:0px;word-spacing:0px;fill:#ffffff;stroke-width:15.1181"
     d="m 497.68927,128.86887 c 0.78221,-1.85778 2.9822,-2.78667 6.6,-2.78667 3.51999,0 5.67111,0.92889 6.45332,2.78667 v 12.90668 c -0.29329,0 -1.02663,-0.24446 -2.19999,-0.73333 -1.17335,-0.48889 -2.59113,-0.73334 -4.25333,-0.73334 -1.76001,0 -3.22666,0.24446 -4.40001,0.73334 -1.17335,0.48889 -1.90666,0.73333 -2.19999,0.73333 z"
     id="path24" />
  <path
     style="font-size:38.8056px;font-family:'Joseph Pothier A';-inkscape-font-specification:'Joseph Pothier A, Normal';letter-spacing:0px;word-spacing:0px;fill:#ffffff;stroke-width:15.1181"
     d="m 557.90312,115.22885 c 0.78221,-1.85778 2.9822,-2.78667 6.6,-2.78667 3.51999,0 5.6711,0.92889 6.45335,2.78667 v 12.90668 c -0.29329,0 -1.02667,-0.24446 -2.20002,-0.73333 -1.17332,-0.48889 -2.5911,-0.73333 -4.25333,-0.73333 -1.76001,0 -3.22666,0.24446 -4.40001,0.73333 -1.17332,0.48889 -1.90666,0.73333 -2.19999,0.73333 z"
     id="path25" />
  <path
     style="font-size:38.8056px;font-family:'Joseph Pothier A';-inkscape-font-specification:'Joseph Pothier A, Normal';letter-spacing:0px;word-spacing:0px;fill:#ffffff;stroke-width:15.1181"
     d="m 659.27731,101.58884 c 0.78224,-1.857783 2.98223,-2.786673 6.6,-2.786673 3.51998,0 5.6711,0.92889 6.45335,2.786673 v 12.90668 c -0.29329,0 -1.02667,-0.24446 -2.19999,-0.73334 -1.17335,-0.48889 -2.59113,-0.73333 -4.25336,-0.73333 -1.76002,0 -3.22666,0.24446 -4.40002,0.73333 -1.17331,0.48889 -1.90666,0.73334 -2.19998,0.73334 z"
     id="path26" />
  <path
     style="font-size:38.8056px;font-family:'Joseph Pothier A';-inkscape-font-specification:'Joseph Pothier A, Normal';letter-spacing:0px;word-spacing:0px;fill:#ffffff;stroke-width:15.1181"
     d="m 685.38424,101.58884 c 0.78221,-1.857783 2.9822,-2.786673 6.6,-2.786673 3.51999,0 5.67111,0.92889 6.45332,2.786673 v 12.90668 c -0.29329,0 -1.02664,-0.24446 -2.19999,-0.73334 -1.17335,-0.48889 -2.59113,-0.73333 -4.25333,-0.73333 -1.76001,0 -3.22666,0.24446 -4.40001,0.73333 -1.17336,0.48889 -1.90666,0.73334 -2.19999,0.73334 z"
     id="path27" />
  <path
     style="font-size:38.8056px;font-family:'Joseph Pothier A';-inkscape-font-specification:'Joseph Pothier A, Normal';letter-spacing:0px;word-spacing:0px;fill:#ffffff;stroke-width:15.1181"
     d="m 842.97206,101.58884 c 0.78221,-1.857783 2.9822,-2.786673 6.6,-2.786673 3.51999,0 5.67111,0.92889 6.45335,2.786673 v 12.90668 c -0.29329,0 -1.02667,-0.24446 -2.20002,-0.73334 -1.17332,-0.48889 -2.59109,-0.73333 -4.25333,-0.73333 -1.76001,0 -3.22666,0.24446 -4.40001,0.73333 -1.17332,0.48889 -1.90666,0.73334 -2.19999,0.73334 z"
     id="path28" />
  <path
     style="font-size:38.8056px;font-family:'Joseph Pothier A';-inkscape-font-specification:'Joseph Pothier A, Normal';letter-spacing:0px;word-spacing:0px;fill:#ffffff;stroke-width:15.1181"
     d="m 949.29286,115.22885 c 0.78221,-1.85778 2.9822,-2.78667 6.6,-2.78667 3.52,0 5.6711,0.92889 6.4533,2.78667 v 12.90668 c -0.2933,0 -1.0266,-0.24446 -2.2,-0.73333 -1.1733,-0.48889 -2.5911,-0.73333 -4.2533,-0.73333 -1.76,0 -3.2267,0.24446 -4.4,0.73333 -1.1734,0.48889 -1.9067,0.73333 -2.2,0.73333 z"
     id="path29" />
  <path
     style="font-size:38.8056px;font-family:'Joseph Pothier A';-inkscape-font-specification:'Joseph Pothier A, Normal';letter-spacing:0px;word-spacing:0px;fill:#ffffff;stroke-width:15.1181"
     d="m 1084.5602,101.58884 c 0.7823,-1.857783 2.9823,-2.786673 6.6,-2.786673 3.52,0 5.6711,0.92889 6.4534,2.786673 v 12.90668 c -0.2933,0 -1.0267,-0.24446 -2.2,-0.73334 -1.1733,-0.48889 -2.5911,-0.73333 -4.2534,-0.73333 -1.76,0 -3.2266,0.24446 -4.4,0.73333 -1.1733,0.48889 -1.9066,0.73334 -2.2,0.73334 z"
     id="path30" />
  <path
     style="font-size:38.8056px;font-family:'Joseph Pothier A';-inkscape-font-specification:'Joseph Pothier A, Normal';letter-spacing:0px;word-spacing:0px;fill:#ffffff;stroke-width:15.1181"
     d="m 1104.2137,109.94885 c -0.7822,0 -1.3689,-0.19555 -1.76,-0.58667 -0.1954,-0.29333 -0.342,-0.78222 -0.44,-1.46667 0,-0.58667 0.1466,-1.02667 0.44,-1.32 0.5867,-0.58667 1.1733,-0.88 1.76,-0.88 0.88,0 1.4667,0.29333 1.76,0.88 0.2933,0.29333 0.44,0.73333 0.44,1.32 0,0.39111 -0.1466,0.88 -0.44,1.46667 -0.3911,0.39111 -0.9289,0.58667 -1.6133,0.58667 z"
     id="path31" />
  <path
     style="font-size:38.8056px;font-family:'Joseph Pothier A';-inkscape-font-specification:'Joseph Pothier A, Normal';letter-spacing:0px;word-spacing:0px;fill:#ffffff;stroke-width:15.1181"
     d="m 1169.801,65.802127 h 1.4666 v 82.133433 h -1.4666 z"
     id="path32" />
  <path
     style="font-size:38.8056px;font-family:'Joseph Pothier A';-inkscape-font-specification:'Joseph Pothier A, Normal';letter-spacing:0px;word-spacing:0px;fill:#ffffff;stroke-width:15.1181"
     d="m 1216.2477,142.06888 -5.1333,-5.13334 v -8.50667 l 3.6666,3.66667 v -16.72002 h 1.4667 z"
     id="path33" />
  <path
     style="font-size:38.8056px;font-family:'Joseph Pothier A';-inkscape-font-specification:'Joseph Pothier A, Normal';letter-spacing:0px;word-spacing:0px;fill:#ffffff;stroke-width:15.1181"
     d="m 71.525675,309.2548 c 0.29333,1.17333 0.97778,2.29778 2.05333,3.37334 1.07556,0.97778 2.20001,1.46667 3.37334,1.46667 1.85778,0 3.81334,-0.78223 5.86667,-2.34668 v 13.20002 c -1.36888,1.17334 -2.88444,1.76 -4.54667,1.76 -0.58667,0 -1.17333,-0.0978 -1.76,-0.29333 -4.00889,-1.36889 -6.01334,-3.56889 -6.01334,-6.60001 v -22.73336 c 0.0978,-1.07555 0.3422,-2.00444 0.73334,-2.78666 0.87999,-2.05334 2.64,-3.37334 5.28,-3.96001 0.58667,-0.19555 1.17333,-0.29333 1.76,-0.29333 1.76,0 3.12889,0.58667 4.10667,1.76 v 12.76002 c -1.76,-1.27111 -3.56889,-1.90667 -5.42667,-1.90667 -1.27111,0 -2.54223,0.53778 -3.81334,1.61334 -1.17333,1.07555 -1.71111,2.24889 -1.61333,3.52 z"
     id="path37" />
  <path
     style="font-size:38.8056px;font-family:'Joseph Pothier A';-inkscape-font-specification:'Joseph Pothier A, Normal';letter-spacing:0px;word-spacing:0px;fill:#ffffff;stroke-width:15.1181"
     d="m 127.89946,343.62817 c 0.78222,-1.85778 2.98222,-2.78667 6.6,-2.78667 3.52001,0 5.67112,0.92889 6.45335,2.78667 v 12.90668 c -0.29333,0 -1.02667,-0.24446 -2.20001,-0.73333 -1.17333,-0.48889 -2.59111,-0.73334 -4.25334,-0.73334 -1.76,0 -3.22667,0.24446 -4.4,0.73334 -1.17334,0.48889 -1.90667,0.73333 -2.2,0.73333 z"
     id="path38" />
  <path
     style="font-size:38.8056px;font-family:'Joseph Pothier A';-inkscape-font-specification:'Joseph Pothier A, Normal';letter-spacing:0px;word-spacing:0px;fill:#ffffff;stroke-width:15.1181"
     d="m 245.27362,329.98816 c 0.78223,-1.85778 2.98223,-2.78667 6.60001,-2.78667 3.52001,0 5.67112,0.92889 6.45334,2.78667 v 12.90668 c -0.29333,0 -1.02667,-0.24446 -2.2,-0.73333 -1.17334,-0.48889 -2.59111,-0.73334 -4.25334,-0.73334 -1.76,0 -3.22667,0.24446 -4.4,0.73334 -1.17334,0.48888 -1.90667,0.73333 -2.20001,0.73333 z"
     id="path39" />
  <path
     style="font-size:38.8056px;font-family:'Joseph Pothier A';-inkscape-font-specification:'Joseph Pothier A, Normal';letter-spacing:0px;word-spacing:0px;fill:#ffffff;stroke-width:15.1181"
     d="m 344.54087,316.34814 c 0.78223,-1.85778 2.98223,-2.78667 6.60001,-2.78667 3.52001,0 5.67112,0.92889 6.45335,2.78667 v 12.90668 c -0.29333,0 -1.02667,-0.24446 -2.20001,-0.73333 -1.17333,-0.48889 -2.59111,-0.73334 -4.25334,-0.73334 -1.76,0 -3.22667,0.24446 -4.4,0.73334 -1.17334,0.48889 -1.90667,0.73333 -2.20001,0.73333 z"
     id="path40" />
  <path
     style="font-size:38.8056px;font-family:'Joseph Pothier A';-inkscape-font-specification:'Joseph Pothier A, Normal';letter-spacing:0px;word-spacing:0px;fill:#ffffff;stroke-width:15.1181"
     d="m 485.91514,316.34814 c 0.78225,-1.85778 2.98223,-2.78667 6.6,-2.78667 3.52002,0 5.67114,0.92889 6.45335,2.78667 v 12.90668 c -0.29329,0 -1.02667,-0.24446 -2.19999,-0.73333 -1.17335,-0.48889 -2.59113,-0.73334 -4.25336,-0.73334 -1.76002,0 -3.22666,0.24446 -4.39998,0.73334 -1.17335,0.48889 -1.90669,0.73333 -2.20002,0.73333 z"
     id="path41" />
  <path
     style="font-size:38.8056px;font-family:'Joseph Pothier A';-inkscape-font-specification:'Joseph Pothier A, Normal';letter-spacing:0px;word-spacing:0px;fill:#ffffff;stroke-width:15.1181"
     d="m 525.0755,316.34814 c 0.7822,-1.85778 2.9822,-2.78667 6.6,-2.78667 3.51999,0 5.67111,0.92889 6.45336,2.78667 v 12.90668 c -0.29329,0 -1.02667,-0.24446 -2.20003,-0.73333 -1.17335,-0.48889 -2.59113,-0.73334 -4.25333,-0.73334 -1.76001,0 -3.22666,0.24446 -4.40001,0.73334 -1.17335,0.48889 -1.90666,0.73333 -2.19999,0.73333 z"
     id="path42" />
  <path
     style="font-size:38.8056px;font-family:'Joseph Pothier A';-inkscape-font-specification:'Joseph Pothier A, Normal';letter-spacing:0px;word-spacing:0px;fill:#ffffff;stroke-width:15.1181"
     d="m 675.50304,329.98816 c 0.78222,-1.85778 2.9822,-2.78667 6.6,-2.78667 3.51999,0 5.67111,0.92889 6.45332,2.78667 v 12.90668 c -0.29329,0 -1.02663,-0.24446 -2.19999,-0.73333 -1.17335,-0.48889 -2.59113,-0.73334 -4.25333,-0.73334 -1.76001,0 -3.22665,0.24446 -4.40001,0.73334 -1.17335,0.48888 -1.90666,0.73333 -2.19999,0.73333 z"
     id="path43" />
  <path
     style="font-size:38.8056px;font-family:'Joseph Pothier A';-inkscape-font-specification:'Joseph Pothier A, Normal';letter-spacing:0px;word-spacing:0px;fill:#ffffff;stroke-width:15.1181"
     d="m 824.87723,302.70813 c 0.78221,-1.85778 2.9822,-2.78667 6.6,-2.78667 3.51999,0 5.67111,0.92889 6.45332,2.78667 v 13.05335 c -0.29329,0 -1.02663,-0.24446 -2.19999,-0.73334 -1.17335,-0.58667 -2.59113,-0.88 -4.25333,-0.88 -1.76001,0 -3.22666,0.29333 -4.40001,0.88 -1.17336,0.48889 -1.90666,0.73334 -2.19999,0.73334 z"
     id="path44" />
  <path
     style="font-size:38.8056px;font-family:'Joseph Pothier A';-inkscape-font-specification:'Joseph Pothier A, Normal';letter-spacing:0px;word-spacing:0px;fill:#ffffff;stroke-width:15.1181"
     d="m 923.19797,316.34814 c 0.7822,-1.85778 2.9822,-2.78667 6.6,-2.78667 3.52,0 5.6711,0.92889 6.45329,2.78667 v 12.90668 c -0.2933,0 -1.02659,-0.24446 -2.2,-0.73333 -1.17329,-0.48889 -2.5911,-0.73334 -4.2533,-0.73334 -1.76,0 -3.2267,0.24446 -4.4,0.73334 -1.1734,0.48889 -1.9067,0.73333 -2.2,0.73333 z"
     id="path45" />
  <path
     style="font-size:38.8056px;font-family:'Joseph Pothier A';-inkscape-font-specification:'Joseph Pothier A, Normal';letter-spacing:0px;word-spacing:0px;fill:#ffffff;stroke-width:15.1181"
     d="m 1048.4653,316.34814 c 0.7822,-1.85778 2.9822,-2.78667 6.6,-2.78667 3.52,0 5.6711,0.92889 6.4534,2.78667 v 12.90668 c -0.2933,0 -1.0267,-0.24446 -2.2001,-0.73333 -1.1733,-0.48889 -2.5911,-0.73334 -4.2533,-0.73334 -1.76,0 -3.2267,0.24446 -4.4,0.73334 -1.1734,0.48889 -1.9067,0.73333 -2.2,0.73333 z"
     id="path46" />
  <path
     style="font-size:38.8056px;font-family:'Joseph Pothier A';-inkscape-font-specification:'Joseph Pothier A, Normal';letter-spacing:0px;word-spacing:0px;fill:#ffffff;stroke-width:15.1181"
     d="m 1216.2462,343.33484 -5.1319,-5.13334 v -8.50668 l 3.6667,3.66668 v -16.72003 h 1.4667 z"
     id="path47"
     sodipodi:nodetypes="ccccccc" />
  <path
     style="font-size:38.8056px;font-family:'Joseph Pothier A';-inkscape-font-specification:'Joseph Pothier A, Normal';letter-spacing:0px;word-spacing:0px;fill:#ffffff;stroke-width:15.1181"
     d="m 72.146975,524.01513 c 0.29333,1.17331 0.97778,2.29776 2.05334,3.37334 1.07556,0.97776 2.2,1.46664 3.37334,1.46664 1.85777,0 3.81333,-0.78221 5.86667,-2.34667 v 13.20004 c -1.36889,1.17332 -2.88445,1.75998 -4.54667,1.75998 -0.58667,0 -1.17334,-0.0979 -1.76001,-0.2933 -4.00889,-1.3689 -6.01333,-3.56889 -6.01333,-6.6 V 511.8418 c 0.0978,-1.07554 0.34219,-2.00444 0.73333,-2.78665 0.88,-2.05334 2.64,-3.37334 5.28,-3.96004 0.58667,-0.1954 1.17334,-0.29329 1.76001,-0.29329 1.76,0 3.12889,0.58666 4.10667,1.76001 v 12.76003 c -1.76,-1.27113 -3.5689,-1.9067 -5.42667,-1.9067 -1.27112,0 -2.54223,0.53779 -3.81334,1.61337 -1.17334,1.07554 -1.71112,2.2489 -1.61334,3.51999 z"
     id="path51" />
  <path
     style="font-size:38.8056px;font-family:'Joseph Pothier A';-inkscape-font-specification:'Joseph Pothier A, Normal';letter-spacing:0px;word-spacing:0px;fill:#ffffff;stroke-width:15.1181"
     d="m 144.62767,544.74844 c 0.78222,-1.85775 2.98222,-2.78664 6.60001,-2.78664 3.52,0 5.67111,0.92889 6.45334,2.78664 v 12.90671 c -0.29333,0 -1.02667,-0.24453 -2.20001,-0.73334 -1.17333,-0.48888 -2.59111,-0.73334 -4.25333,-0.73334 -1.76001,0 -3.22667,0.24453 -4.40001,0.73334 -1.17333,0.48888 -1.90667,0.73334 -2.2,0.73334 z"
     id="path52" />
  <path
     style="font-size:38.8056px;font-family:'Joseph Pothier A';-inkscape-font-specification:'Joseph Pothier A, Normal';letter-spacing:0px;word-spacing:0px;fill:#ffffff;stroke-width:15.1181"
     d="m 211.78802,558.38846 c 0.78222,-1.85776 2.98222,-2.78665 6.60001,-2.78665 3.52,0 5.67112,0.92889 6.45334,2.78665 v 12.9067 c -0.29333,0 -1.02667,-0.24453 -2.2,-0.73334 -1.17334,-0.48888 -2.59112,-0.73334 -4.25334,-0.73334 -1.76001,0 -3.22667,0.24454 -4.40001,0.73334 -1.17333,0.48888 -1.90667,0.73334 -2.2,0.73334 z"
     id="path53" />
  <path
     style="font-size:38.8056px;font-family:'Joseph Pothier A';-inkscape-font-specification:'Joseph Pothier A, Normal';letter-spacing:0px;word-spacing:0px;fill:#ffffff;stroke-width:15.1181"
     d="m 231.44147,565.86848 c -0.78222,0 -1.36889,-0.1954 -1.76,-0.58666 -0.19555,-0.29329 -0.34224,-0.78225 -0.44,-1.46668 0,-0.58666 0.14668,-1.02667 0.44,-1.32 0.58667,-0.58666 1.17334,-0.87999 1.76,-0.87999 0.88,0 1.46667,0.29329 1.76,0.87999 0.29333,0.29329 0.44,0.73334 0.44,1.32 0,0.3911 -0.14668,0.87999 -0.44,1.46668 -0.39111,0.39111 -0.92888,0.58666 -1.61333,0.58666 z"
     id="path54" />
  <path
     style="font-size:38.8056px;font-family:'Joseph Pothier A';-inkscape-font-specification:'Joseph Pothier A, Normal';letter-spacing:0px;word-spacing:0px;fill:#ffffff;stroke-width:15.1181"
     d="m 274.81504,495.32175 h 1.46667 v 82.1334 h -1.46667 z"
     id="path55" />
  <path
     style="font-size:38.8056px;font-family:'Joseph Pothier A';-inkscape-font-specification:'Joseph Pothier A, Normal';letter-spacing:0px;word-spacing:0px;fill:#ffffff;stroke-width:15.1181"
     d="m 337.30877,558.38846 c 0.78222,-1.85776 2.98223,-2.78665 6.60001,-2.78665 3.52001,0 5.67112,0.92889 6.45334,2.78665 v 12.9067 c -0.29333,0 -1.02666,-0.24453 -2.2,-0.73334 -1.17334,-0.48888 -2.59112,-0.73334 -4.25334,-0.73334 -1.76,0 -3.22667,0.24454 -4.40001,0.73334 -1.17333,0.48888 -1.90667,0.73334 -2.2,0.73334 z"
     id="path56" />
  <path
     style="font-size:38.8056px;font-family:'Joseph Pothier A';-inkscape-font-specification:'Joseph Pothier A, Normal';letter-spacing:0px;word-spacing:0px;fill:#ffffff;stroke-width:15.1181"
     d="m 414.57602,544.74844 c 0.78222,-1.85775 2.98224,-2.78664 6.6,-2.78664 3.52003,0 5.67115,0.92889 6.45336,2.78664 v 12.90671 c -0.29329,0 -1.02667,-0.24453 -2.19999,-0.73334 -1.17335,-0.48888 -2.59113,-0.73334 -4.25337,-0.73334 -1.75997,0 -3.22665,0.24453 -4.40001,0.73334 -1.17332,0.48888 -1.90666,0.73334 -2.19999,0.73334 z"
     id="path57" />
  <path
     style="font-size:38.8056px;font-family:'Joseph Pothier A';-inkscape-font-specification:'Joseph Pothier A, Normal';letter-spacing:0px;word-spacing:0px;fill:#ffffff;stroke-width:15.1181"
     d="m 539.00367,531.10843 c 0.78221,-1.85775 2.98219,-2.78665 6.6,-2.78665 3.51998,0 5.6711,0.9289 6.45331,2.78665 v 12.90671 c -0.29329,0 -1.02663,-0.24454 -2.19998,-0.73334 -1.17336,-0.48888 -2.59114,-0.73334 -4.25333,-0.73334 -1.76002,0 -3.22666,0.24453 -4.40002,0.73334 -1.17335,0.48888 -1.90665,0.73334 -2.19998,0.73334 z"
     id="path58" />
  <path
     style="font-size:38.8056px;font-family:'Joseph Pothier A';-inkscape-font-specification:'Joseph Pothier A, Normal';letter-spacing:0px;word-spacing:0px;fill:#ffffff;stroke-width:15.1181"
     d="m 588.16398,531.10843 c 0.78221,-1.85775 2.9822,-2.78665 6.6,-2.78665 3.51999,0 5.67111,0.9289 6.45336,2.78665 v 12.90671 c -0.29331,0 -1.02667,-0.24454 -2.20003,-0.73334 -1.17332,-0.48888 -2.59109,-0.73334 -4.25333,-0.73334 -1.76001,0 -3.22666,0.24453 -4.40001,0.73334 -1.17332,0.48888 -1.90666,0.73334 -2.19999,0.73334 z"
     id="path59" />
  <path
     style="font-size:38.8056px;font-family:'Joseph Pothier A';-inkscape-font-specification:'Joseph Pothier A, Normal';letter-spacing:0px;word-spacing:0px;fill:#ffffff;stroke-width:15.1181"
     d="m 743.53817,531.10843 c 0.78225,-1.85775 2.98224,-2.78665 6.6,-2.78665 3.51999,0 5.6711,0.9289 6.45335,2.78665 v 12.90671 c -0.29329,0 -1.02667,-0.24454 -2.20002,-0.73334 -1.17332,-0.48888 -2.59109,-0.73334 -4.25333,-0.73334 -1.76001,0 -3.22666,0.24453 -4.40001,0.73334 -1.17332,0.48888 -1.90666,0.73334 -2.19999,0.73334 z"
     id="path60" />
  <path
     style="font-size:38.8056px;font-family:'Joseph Pothier A';-inkscape-font-specification:'Joseph Pothier A, Normal';letter-spacing:0px;word-spacing:0px;fill:#ffffff;stroke-width:15.1181"
     d="m 832.80547,544.74844 c 0.78225,-1.85775 2.98224,-2.78664 6.6,-2.78664 3.51999,0 5.67111,0.92889 6.45336,2.78664 v 12.90671 c -0.2933,0 -1.02668,-0.24453 -2.19999,-0.73334 -1.17336,-0.48888 -2.59113,-0.73334 -4.25337,-0.73334 -1.76001,0 -3.22666,0.24453 -4.39997,0.73334 -1.17336,0.48888 -1.9067,0.73334 -2.20003,0.73334 z"
     id="path61" />
  <path
     style="font-size:38.8056px;font-family:'Joseph Pothier A';-inkscape-font-specification:'Joseph Pothier A, Normal';letter-spacing:0px;word-spacing:0px;fill:#ffffff;stroke-width:15.1181"
     d="m 948.07286,531.10843 c 0.78221,-1.85775 2.9822,-2.78665 6.6,-2.78665 3.52,0 5.6711,0.9289 6.4533,2.78665 v 12.90671 c -0.2933,0 -1.0266,-0.24454 -2.1999,-0.73334 -1.1734,-0.48888 -2.5912,-0.73334 -4.2534,-0.73334 -1.76,0 -3.2267,0.24453 -4.4,0.73334 -1.1733,0.48888 -1.9067,0.73334 -2.2,0.73334 z"
     id="path62" />
  <path
     style="font-size:38.8056px;font-family:'Joseph Pothier A';-inkscape-font-specification:'Joseph Pothier A, Normal';letter-spacing:0px;word-spacing:0px;fill:#ffffff;stroke-width:15.1181"
     d="m 967.72627,539.46844 c -0.7822,0 -1.3689,-0.1954 -1.76,-0.58666 -0.1954,-0.29329 -0.342,-0.78224 -0.44,-1.46668 0,-0.58666 0.1467,-1.02667 0.44,-1.32 0.5867,-0.58666 1.1734,-0.87999 1.76,-0.87999 0.88,0 1.4667,0.2933 1.76,0.87999 0.2933,0.29329 0.44,0.73334 0.44,1.32 0,0.39114 -0.1466,0.88003 -0.44,1.46668 -0.3911,0.39111 -0.92891,0.58666 -1.6133,0.58666 z"
     id="path63" />
  <path
     style="font-size:38.8056px;font-family:'Joseph Pothier A';-inkscape-font-specification:'Joseph Pothier A, Normal';letter-spacing:0px;word-spacing:0px;fill:#ffffff;stroke-width:15.1181"
     d="m 1129.2069,495.32175 h 1.4666 v 82.1334 h -1.4666 z"
     id="path64" />
  <path
     style="font-size:38.8056px;font-family:'Joseph Pothier A';-inkscape-font-specification:'Joseph Pothier A, Normal';letter-spacing:0px;word-spacing:0px;fill:#ffffff;stroke-width:15.1181"
     d="m 1216.2462,571.58849 -5.1333,-5.13335 v -8.50666 l 3.6667,3.66667 v -16.72002 h 1.4666 z"
     id="path65" />
</svg>
