<?xml version="1.0" encoding="UTF-8" standalone="no"?>
<!-- Created with Inkscape (http://www.inkscape.org/) -->

<svg
   width="1280"
   height="720"
   viewBox="0 0 1280 720"
   version="1.1"
   id="svg1"
   inkscape:version="1.3.2 (091e20e, 2023-11-25, custom)"
   sodipodi:docname="Holy2IS.svg"
   xmlns:inkscape="http://www.inkscape.org/namespaces/inkscape"
   xmlns:sodipodi="http://sodipodi.sourceforge.net/DTD/sodipodi-0.dtd"
   xmlns="http://www.w3.org/2000/svg"
   xmlns:svg="http://www.w3.org/2000/svg">
  <sodipodi:namedview
     id="namedview1"
     pagecolor="#000000"
     bordercolor="#000000"
     borderopacity="0.25"
     inkscape:showpageshadow="2"
     inkscape:pageopacity="0.0"
     inkscape:pagecheckerboard="0"
     inkscape:deskcolor="#d1d1d1"
     inkscape:document-units="mm"
     inkscape:zoom="0.63118804"
     inkscape:cx="670.95695"
     inkscape:cy="537.87458"
     inkscape:window-width="1920"
     inkscape:window-height="1009"
     inkscape:window-x="-8"
     inkscape:window-y="-8"
     inkscape:window-maximized="1"
     inkscape:current-layer="svg1" />
  <defs
     id="defs1" />
  <text
     x="103.63649"
     y="543.35052"
     fill="#ffffff"
     font-family="Arial"
     font-size="63.9993px"
     font-weight="bold"
     id="text1"
     style="stroke-width:0.26458">of the Lord. Hosanna in the highest.</text>
  <text
     x="61.3349"
     y="314.61743"
     fill="#ffffff"
     font-family="Arial"
     font-size="63.9993px"
     font-weight="bold"
     letter-spacing="0"
     word-spacing="0"
     xml:space="preserve"
     id="text2"
     style="stroke-width:0.26458"><tspan
       x="61.3349"
       y="314.61743"
       id="tspan1"
       style="stroke-width:0.26458">Blessed is he who comes in the name</tspan></text>
  <path
     d="m 63.75,163.18084 h 1152.5 v 1.45043 H 63.75 Z m 0,26.68554 h 1152.5 v 1.45043 H 63.75 Z m 0,26.83371 h 1152.5 v 1.45042 H 63.75 Z m 0,26.83105 h 1152.5 v 1.45043 H 63.75 Z"
     id="path2"
     style="fill:#ffffff;stroke-width:0.264761" />
  <path
     id="use28"
     d="m 246.88434,212.63878 c 0.7731,-1.83751 2.94874,-2.75586 6.52666,-2.75586 3.48081,0 5.60857,0.91835 6.38167,2.75586 v 12.76334 c -0.28998,0 -1.0152,-0.24209 -2.17564,-0.72521 -1.16045,-0.48313 -2.56273,-0.72522 -4.20603,-0.72522 -1.74041,0 -3.19084,0.24209 -4.35128,0.72522 -1.16045,0.48312 -1.8854,0.72521 -2.17565,0.72521 z"
     style="fill:#ffffff;stroke-width:0.26458" />
  <path
     d="m 71.43605,192.07827 c 0.28998,1.16018 0.9673,2.27274 2.03065,3.33583 1.06335,0.9673 2.17564,1.45042 3.33583,1.45042 1.8375,0 3.77105,-0.7731 5.80144,-2.32063 v 13.05359 c -1.35333,1.16018 -2.8527,1.7404 -4.49627,1.7404 a 5.4749539,5.4749539 0 0 1 -1.74041,-0.28998 c -3.9642,-1.35332 -5.9467,-3.52897 -5.9467,-6.52666 v -22.48109 c 0.0971,-1.06335 0.33814,-1.9825 0.72522,-2.75587 0.8702,-2.03065 2.61061,-3.33582 5.22148,-3.91605 a 5.4749539,5.4749539 0 0 1 1.74041,-0.28998 c 1.74041,0 3.09373,0.58023 4.06104,1.74041 v 12.61835 c -1.74041,-1.25729 -3.52897,-1.8854 -5.36648,-1.8854 -1.25728,0 -2.51377,0.53207 -3.77106,1.59542 -1.16045,1.06335 -1.69252,2.22353 -1.59541,3.48081 z"
     id="path3"
     style="fill:#ffffff;stroke-width:0.26458" />
  <path
     id="use3"
     d="m 138.4621,226.12707 c 0.7731,-1.83751 2.94875,-2.75586 6.52666,-2.75586 3.48081,0 5.60857,0.91835 6.38167,2.75586 v 12.76334 c -0.28998,0 -1.01519,-0.24209 -2.17564,-0.72521 -1.16045,-0.48313 -2.56272,-0.72522 -4.20603,-0.72522 -1.74041,0 -3.19083,0.24209 -4.35128,0.72522 -1.16045,0.48312 -1.8854,0.72521 -2.17564,0.72521 z"
     style="fill:#ffffff;stroke-width:0.26458" />
  <path
     id="use4"
     d="m 330.3461,199.15049 c 0.77311,-1.8375 2.94875,-2.75586 6.52666,-2.75586 3.48082,0 5.60857,0.91836 6.38167,2.75586 v 12.76334 c -0.28998,0 -1.01519,-0.24209 -2.17564,-0.72521 -1.16045,-0.48312 -2.56272,-0.72521 -4.20603,-0.72521 -1.7404,0 -3.19083,0.24209 -4.35128,0.72521 -1.16045,0.48312 -1.8854,0.72521 -2.17564,0.72521 z"
     style="fill:#ffffff;stroke-width:0.26458" />
  <path
     id="use5"
     d="m 448.34878,199.15049 c 0.77311,-1.8375 2.94875,-2.75586 6.52666,-2.75586 3.48082,0 5.60857,0.91836 6.38167,2.75586 v 12.76334 c -0.28998,0 -1.01519,-0.24209 -2.17564,-0.72521 -1.16045,-0.48312 -2.56272,-0.72521 -4.20603,-0.72521 -1.7404,0 -3.19083,0.24209 -4.35128,0.72521 -1.16045,0.48312 -1.8854,0.72521 -2.17564,0.72521 z"
     style="fill:#ffffff;stroke-width:0.26458" />
  <path
     id="use6"
     d="m 467.79541,207.41597 c -0.7731,0 -1.35333,-0.19314 -1.74041,-0.58022 -0.19314,-0.28998 -0.33813,-0.7731 -0.43523,-1.45043 0,-0.58022 0.14499,-1.01519 0.43523,-1.30544 0.58023,-0.58022 1.16045,-0.8702 1.74041,-0.8702 0.8702,0 1.45043,0.28998 1.74041,0.8702 0.28998,0.28998 0.43523,0.72522 0.43523,1.30544 0,0.38708 -0.14499,0.87021 -0.43523,1.45043 -0.38708,0.38708 -0.91836,0.58022 -1.59542,0.58022 z"
     style="fill:#ffffff;stroke-width:0.26458" />
  <path
     id="use7"
     d="m 593.2857,212.63878 c 0.77337,-1.83751 2.94875,-2.75586 6.52666,-2.75586 3.48082,0 5.60857,0.91835 6.38167,2.75586 v 12.76334 c -0.28998,0 -1.01519,-0.24209 -2.17564,-0.72521 -1.16045,-0.48313 -2.56272,-0.72522 -4.20603,-0.72522 -1.7404,0 -3.19083,0.24209 -4.35128,0.72522 -1.16045,0.48312 -1.8854,0.72521 -2.17564,0.72521 z"
     style="fill:#ffffff;stroke-width:0.26458" />
  <path
     id="use8"
     d="m 688.26992,185.73364 c 0.77337,-1.83751 2.94875,-2.75586 6.52666,-2.75586 3.48082,0 5.60857,0.91835 6.38167,2.75586 v 12.76334 c -0.28998,0 -1.01519,-0.24209 -2.17564,-0.72521 -1.16045,-0.48313 -2.56272,-0.72522 -4.20603,-0.72522 -1.7404,0 -3.19083,0.24209 -4.35128,0.72522 -1.16045,0.48312 -1.8854,0.72521 -2.17564,0.72521 z"
     style="fill:#ffffff;stroke-width:0.26458" />
  <path
     id="use9"
     d="m 860.06171,199.15049 c 0.77337,-1.8375 2.94875,-2.75586 6.52666,-2.75586 3.48082,0 5.60857,0.91836 6.38167,2.75586 v 12.76334 c -0.28998,0 -1.01519,-0.24209 -2.17564,-0.72521 -1.16045,-0.48312 -2.56272,-0.72521 -4.20603,-0.72521 -1.7404,0 -3.19083,0.24209 -4.35128,0.72521 -1.16045,0.48312 -1.8854,0.72521 -2.17564,0.72521 z"
     style="fill:#ffffff;stroke-width:0.26458" />
  <path
     id="use10"
     d="m 1003.0672,212.63878 c 0.7734,-1.83751 2.9488,-2.75586 6.5267,-2.75586 3.4808,0 5.6085,0.91835 6.3816,2.75586 v 12.76334 c -0.2899,0 -1.0151,-0.24209 -2.1756,-0.72521 -1.1604,-0.48313 -2.5627,-0.72522 -4.206,-0.72522 -1.7404,0 -3.1909,0.24209 -4.3513,0.72522 -1.1605,0.48312 -1.8854,0.72521 -2.1756,0.72521 z"
     style="fill:#ffffff;stroke-width:0.26458" />
  <path
     id="use11"
     d="m 1094.215,199.15049 c 0.7731,-1.8375 2.9488,-2.75586 6.5267,-2.75586 3.4808,0 5.6086,0.91836 6.3817,2.75586 v 12.76334 c -0.29,0 -1.0152,-0.24209 -2.1757,-0.72521 -1.1604,-0.48312 -2.5627,-0.72521 -4.206,-0.72521 -1.7404,0 -3.1908,0.24209 -4.3513,0.72521 -1.1604,0.48312 -1.8854,0.72521 -2.1756,0.72521 z"
     style="fill:#ffffff;stroke-width:0.26458" />
  <path
     d="m 1216.2497,225.83603 -5.0762,-5.07649 v -8.41232 l 3.6261,3.62606 v -16.53439 h 1.4504 z"
     id="path11"
     style="fill:#ffffff;stroke-width:0.26458" />
  <path
     id="path25"
     d="m 63.75,390.8387 h 1152.5 v 1.45043 H 63.75 Z m 0,26.69613 h 1152.5 v 1.45042 H 63.75 Z m 0,26.82841 h 1152.5 v 1.45043 H 63.75 Z m 0,26.82841 h 1152.5 v 1.45043 H 63.75 Z"
     inkscape:label="path25"
     style="fill:#ffffff;stroke-width:0.264761" />
  <path
     d="m 71.4387,419.73084 c 0.28998,1.16045 0.9673,2.27274 2.03065,3.33609 1.06334,0.9673 2.17564,1.45043 3.33609,1.45043 1.8375,0 3.77132,-0.77337 5.80197,-2.3209 v 13.05438 c -1.35359,1.16045 -2.85296,1.74067 -4.49654,1.74067 a 5.4754831,5.4754831 0 0 1 -1.74067,-0.28998 c -3.96446,-1.35359 -5.94696,-3.52923 -5.94696,-6.52719 v -22.48268 c 0.0971,-1.06335 0.33813,-1.98277 0.72521,-2.75587 0.8702,-2.03065 2.61088,-3.33609 5.22175,-3.91631 a 5.4754831,5.4754831 0 0 1 1.74067,-0.29025 c 1.74067,0 3.094,0.58023 4.06131,1.74068 v 12.6194 c -1.74068,-1.25755 -3.52924,-1.88566 -5.36674,-1.88566 -1.25729,0 -2.51378,0.53207 -3.77133,1.59568 -1.16045,1.06335 -1.69252,2.2238 -1.59541,3.48108 z"
     id="path12"
     style="fill:#ffffff;stroke-width:0.26458" />
  <path
     id="use12"
     d="m 119.25624,440.31517 c 0.77336,-1.83751 2.94874,-2.75587 6.52666,-2.75587 3.48081,0 5.60856,0.91836 6.38167,2.75587 v 12.76334 c -0.28998,0 -1.0152,-0.24209 -2.17564,-0.72522 -1.16045,-0.48312 -2.56273,-0.72521 -4.20603,-0.72521 -1.74041,0 -3.19084,0.24209 -4.35129,0.72521 -1.16044,0.48313 -1.88539,0.72522 -2.17564,0.72522 z"
     style="fill:#ffffff;stroke-width:0.26458" />
  <path
     id="use13"
     d="m 254.58361,453.78228 c 0.77337,-1.83751 2.94874,-2.75586 6.52666,-2.75586 3.48081,0 5.60857,0.91835 6.38167,2.75586 v 12.76334 c -0.28998,0 -1.01519,-0.24209 -2.17564,-0.72521 -1.16045,-0.48313 -2.56272,-0.72522 -4.20603,-0.72522 -1.74041,0 -3.19083,0.24209 -4.35128,0.72522 -1.16045,0.48312 -1.8854,0.72521 -2.17564,0.72521 z"
     style="fill:#ffffff;stroke-width:0.26458" />
  <path
     id="use14"
     d="m 349.5546,453.49125 c 0.77311,-1.83751 2.94875,-2.75587 6.52666,-2.75587 3.48082,0 5.60857,0.91836 6.38167,2.75587 v 12.76334 c -0.28998,0 -1.01519,-0.24209 -2.17564,-0.72521 -1.16045,-0.48313 -2.56272,-0.72522 -4.20603,-0.72522 -1.7404,0 -3.19083,0.24209 -4.35128,0.72522 -1.16045,0.48312 -1.8854,0.72521 -2.17564,0.72521 z"
     style="fill:#ffffff;stroke-width:0.26458" />
  <path
     id="use15"
     d="m 369.00124,461.19052 c -0.7731,0 -1.35333,-0.19314 -1.74041,-0.58023 -0.19314,-0.28997 -0.33813,-0.7731 -0.43523,-1.45042 0,-0.58023 0.14499,-1.0152 0.43523,-1.30544 0.58023,-0.58022 1.16045,-0.8702 1.74041,-0.8702 0.8702,0 1.45043,0.28998 1.74041,0.8702 0.28998,0.28998 0.43523,0.72521 0.43523,1.30544 0,0.38708 -0.14499,0.8702 -0.43523,1.45042 -0.38708,0.38709 -0.91836,0.58023 -1.59542,0.58023 z"
     style="fill:#ffffff;stroke-width:0.26458" />
  <path
     d="m 454.75162,391.42078 h 1.45043 v 81.22871 h -1.45043 z"
     id="path15"
     style="fill:#ffffff;stroke-width:0.26458" />
  <path
     id="use16"
     d="m 533.91395,480.47841 c 0.7731,-1.83751 2.94874,-2.75587 6.52665,-2.75587 3.48082,0 5.60857,0.91836 6.38167,2.75587 v 12.76334 c -0.28998,0 -1.01519,-0.24209 -2.17564,-0.72521 -1.16044,-0.48313 -2.56272,-0.72522 -4.20603,-0.72522 -1.7404,0 -3.19083,0.24209 -4.35128,0.72522 -1.16045,0.48312 -1.88539,0.72521 -2.17564,0.72521 z"
     style="fill:#ffffff;stroke-width:0.26458" />
  <path
     d="m 616.75395,443.0668 c 1.06335,0 2.12775,1.74067 3.1911,5.22175 0.96731,3.2882 1.45043,6.52719 1.45043,9.71828 0,4.15841 -0.8702,6.67218 -2.61088,7.54265 -1.25755,0.67733 -2.90085,1.01546 -4.93177,1.01546 -1.83751,0 -3.67422,-0.43523 -5.51199,-1.30544 -0.38708,-0.0971 -0.58023,-0.19314 -0.58023,-0.29024 v -11.8942 c 1.25755,1.16045 2.3209,1.78856 3.1911,1.88567 0.87021,0.19314 1.69252,0.29024 2.46589,0.29024 h 0.28998 c 1.93381,0 3.62633,-0.62811 5.07676,-1.88566 0.38708,-0.38708 0.58022,-0.87021 0.58022,-1.45043 0,-2.03065 -0.67732,-4.49654 -2.03065,-7.39766 -0.29024,-0.38708 -0.53207,-0.67732 -0.72521,-0.8702 v -0.43523 z"
     id="path16"
     style="fill:#ffffff;stroke-width:0.26458" />
  <path
     d="m 617.33603,440.44745 h 0.28998 c 1.64357,0 2.90112,0.53207 3.77132,1.59569 v 15.95549 l -1.45043,5.36674 v -12.76439 c 0,-0.77337 -0.62811,-1.20834 -1.88566,-1.30544 h -0.58022 c -0.96731,0 -1.83751,0.48312 -2.61088,1.45043 l -0.58022,0.28998 v -8.26786 c 0.67732,-1.54753 1.69252,-2.3209 3.04611,-2.3209 z"
     id="path17"
     style="fill:#ffffff;stroke-width:0.26458" />
  <path
     id="use17"
     d="m 720.76034,440.31517 c 0.77337,-1.83751 2.94875,-2.75587 6.52666,-2.75587 3.48082,0 5.60857,0.91836 6.38167,2.75587 v 12.76334 c -0.28998,0 -1.01519,-0.24209 -2.17564,-0.72522 -1.16045,-0.48312 -2.56272,-0.72521 -4.20603,-0.72521 -1.7404,0 -3.19083,0.24209 -4.35128,0.72521 -1.16045,0.48313 -1.8854,0.72522 -2.17564,0.72522 z"
     style="fill:#ffffff;stroke-width:0.26458" />
  <path
     id="use18"
     d="m 763.86043,440.31517 c 0.77337,-1.83751 2.94875,-2.75587 6.52666,-2.75587 3.48082,0 5.60857,0.91836 6.38167,2.75587 v 12.76334 c -0.28998,0 -1.01519,-0.24209 -2.17564,-0.72522 -1.16045,-0.48312 -2.56272,-0.72521 -4.20603,-0.72521 -1.7404,0 -3.19083,0.24209 -4.35128,0.72521 -1.16045,0.48313 -1.8854,0.72522 -2.17564,0.72522 z"
     style="fill:#ffffff;stroke-width:0.26458" />
  <path
     id="use19"
     d="m 906.86591,426.82159 c 0.77336,-1.83751 2.94874,-2.75587 6.52666,-2.75587 3.48081,0 5.60856,0.91836 6.38167,2.75587 v 12.76334 c -0.28998,0 -1.0152,-0.24209 -2.17565,-0.72522 -1.16044,-0.48312 -2.56272,-0.72521 -4.20602,-0.72521 -1.74041,0 -3.19084,0.24209 -4.35129,0.72521 -1.16044,0.48313 -1.88539,0.72522 -2.17564,0.72522 z"
     style="fill:#ffffff;stroke-width:0.26458" />
  <path
     d="m 994.73294,439.15101 1.74067,-0.14499 v 38.43818 h -1.74067 z"
     id="path19"
     style="fill:#ffffff;stroke-width:0.26458" />
  <path
     d="m 1007.6445,453.06792 c -2.1278,-2.22379 -4.1095,-3.43319 -5.947,-3.62633 -2.03072,-0.19315 -4.35157,0.33813 -6.96244,1.59541 v -11.89393 c 1.74067,-0.9673 3.43319,-1.45042 5.07672,-1.45042 a 9.5291133,9.5291133 0 0 1 2.32092,0.29024 c 2.4178,0.67733 4.2545,2.12775 5.512,4.35155 z"
     id="path20"
     style="fill:#ffffff;stroke-width:0.26458" />
  <path
     d="m 1003.5964,462.64572 c -1.3536,0 -2.3688,-0.82232 -3.0461,-2.46589 v -8.26786 l 0.5802,0.43523 c 0.7734,0.96731 1.6436,1.45043 2.6109,1.45043 l 0.5802,-0.14499 c 1.2576,-0.0971 1.8857,-0.48312 1.8857,-1.16045 v -10.87873 l 1.4504,0.72521 v 18.56637 c -0.8702,1.16045 -2.1278,1.74068 -3.7713,1.74068 z"
     id="path21"
     style="fill:#ffffff;stroke-width:0.26458" />
  <path
     d="m 1101.7027,468.30773 c -3.2882,0 -5.125,-0.0971 -5.512,-0.28998 -0.6774,-0.0971 -1.0155,-0.72522 -1.0155,-1.88566 v -8.99308 c 0,-0.9673 0.3381,-1.49858 1.0155,-1.59568 h 8.1228 c 1.0634,0 1.8375,-0.53207 2.3209,-1.59568 v -15.08529 c 0.7734,0.67732 1.2573,1.54752 1.4505,2.61087 v 24.65833 c 0,1.16045 -0.2421,1.83751 -0.7253,2.03065 -0.387,0.0971 -2.2727,0.14499 -5.6569,0.14499 z"
     id="path24"
     style="fill:#ffffff;stroke-width:0.26458" />
  <path
     id="use21"
     d="m 1114.6141,461.19052 c -0.7731,0 -1.3533,-0.19314 -1.7404,-0.58023 -0.1931,-0.28997 -0.3381,-0.7731 -0.4352,-1.45042 0,-0.58023 0.145,-1.0152 0.4352,-1.30544 0.5802,-0.58022 1.1605,-0.8702 1.7404,-0.8702 0.8702,0 1.4505,0.28998 1.7404,0.8702 0.29,0.28998 0.4353,0.72521 0.4353,1.30544 0,0.38708 -0.145,0.8702 -0.4353,1.45042 -0.3871,0.38709 -0.9183,0.58023 -1.5954,0.58023 z"
     style="fill:#ffffff;stroke-width:0.26458" />
  <path
     id="use22"
     d="m 1095.1675,440.31517 c 0.7731,-1.83751 2.9487,-2.75587 6.5266,-2.75587 3.4809,0 5.6086,0.91836 6.3817,2.75587 v 12.76334 c -0.29,0 -1.0152,-0.24209 -2.1756,-0.72522 -1.1605,-0.48312 -2.5628,-0.72521 -4.2061,-0.72521 -1.7404,0 -3.1908,0.24209 -4.3512,0.72521 -1.1605,0.48313 -1.8854,0.72522 -2.1757,0.72522 z"
     style="fill:#ffffff;stroke-width:0.26458" />
  <path
     id="use23"
     d="m 1114.6141,435.07649 c -0.7731,0 -1.3533,-0.19315 -1.7404,-0.58023 -0.1931,-0.28998 -0.3381,-0.7731 -0.4352,-1.45043 0,-0.58022 0.145,-1.01519 0.4352,-1.30543 0.5802,-0.58023 1.1605,-0.87021 1.7404,-0.87021 0.8702,0 1.4505,0.28998 1.7404,0.87021 0.29,0.28998 0.4353,0.72521 0.4353,1.30543 0,0.38708 -0.145,0.87021 -0.4353,1.45043 -0.3871,0.38708 -0.9183,0.58023 -1.5954,0.58023 z"
     style="fill:#ffffff;stroke-width:0.26458" />
  <path
     d="m 1203.3401,390.83394 v 81.80814 h 12.9099 v -81.80814 z m 1.4512,1.44911 h 10.0077 v 78.90834 h -10.0077 z"
     id="path23"
     style="fill:#ffffff;stroke-width:0.26458" />
</svg>
