<?xml version="1.0" encoding="UTF-8" standalone="no"?>
<svg
   width="1280"
   height="720"
   version="1.1"
   id="svg51"
   sodipodi:docname="LentenGospelAcclamation.svg"
   inkscape:version="1.3.2 (091e20e, 2023-11-25, custom)"
   xmlns:inkscape="http://www.inkscape.org/namespaces/inkscape"
   xmlns:sodipodi="http://sodipodi.sourceforge.net/DTD/sodipodi-0.dtd"
   xmlns:xlink="http://www.w3.org/1999/xlink"
   xmlns="http://www.w3.org/2000/svg"
   xmlns:svg="http://www.w3.org/2000/svg">
  <sodipodi:namedview
     id="namedview51"
     pagecolor="#ffffff"
     bordercolor="#000000"
     borderopacity="0.25"
     inkscape:showpageshadow="2"
     inkscape:pageopacity="0.0"
     inkscape:pagecheckerboard="0"
     inkscape:deskcolor="#d1d1d1"
     inkscape:zoom="0.65020678"
     inkscape:cx="323.74316"
     inkscape:cy="214.54713"
     inkscape:window-width="1920"
     inkscape:window-height="1009"
     inkscape:window-x="1912"
     inkscape:window-y="-8"
     inkscape:window-maximized="1"
     inkscape:current-layer="svg51" />
  <defs
     id="defs51">
    <path
       id="B"
       d="M129.9 101.59c.782-1.858 2.982-2.787 6.6-2.787 3.52 0 5.671.929 6.453 2.787v12.907c-.293 0-1.027-.244-2.2-.733s-2.591-.733-4.253-.733c-1.76 0-3.227.244-4.4.733s-1.907.733-2.2.733z" />
    <path
       id="C"
       d="M227.87 109.95c-.782 0-1.369-.196-1.76-.587-.196-.293-.342-.782-.44-1.467 0-.587.147-1.027.44-1.32.587-.587 1.173-.88 1.76-.88.88 0 1.467.293 1.76.88.293.293.44.733.44 1.32 0 .391-.147.88-.44 1.467-.391.391-.929.587-1.613.587z" />
    <path
       id="D"
       d="M71.526 94.495c.293 1.173.978 2.298 2.053 3.373 1.076.978 2.2 1.467 3.373 1.467 1.858 0 3.813-.782 5.867-2.347v13.2c-1.369 1.173-2.884 1.76-4.547 1.76-.587 0-1.173-.098-1.76-.293-4.009-1.369-6.013-3.569-6.013-6.6V82.322c.098-1.076.342-2.004.733-2.787.88-2.053 2.64-3.373 5.28-3.96.587-.196 1.173-.293 1.76-.293 1.76 0 3.129.587 4.107 1.76v12.76c-1.76-1.271-3.569-1.907-5.427-1.907-1.271 0-2.542.538-3.813 1.613-1.173 1.076-1.711 2.249-1.613 3.52z" />
    <path
       id="F"
       d="M195.17 101.59l1.76-1.027v39.307h-1.76z" />
    <path
       id="G"
       d="M63.752 65.215h1152.5v1.467H63.752zm0 26.987h1152.5v1.467H63.752zm0 27.138h1152.5v1.467H63.752zm0 27.13h1152.5v1.467H63.752z" />
    <path
       id="H"
       d="M1216.2 142.215l-5.132-5.133v-8.507l3.667 3.667v-16.72h1.467z" />
  </defs>
  <g
     id="g73"
     transform="translate(0,33.0638)"
     style="fill:#ffffff">
    <text
       xml:space="preserve"
       style="font-style:normal;font-variant:normal;font-weight:normal;font-stretch:normal;font-size:69.3333px;font-family:Arial;-inkscape-font-specification:Arial;fill:#ffffff"
       x="98.434898"
       y="566.08984"
       id="text52"><tspan
         sodipodi:role="line"
         id="tspan52"
         x="98.434898"
         y="566.08984"
         style="font-weight:bold;font-size:69.3333px;fill:#ffffff">Lord Jesus Christ</tspan></text>
    <use
       xlink:href="#G"
       id="use52"
       transform="translate(-0.002,327.6763)"
       style="font-weight:bold;font-size:69.333px;font-family:Arial;fill:#ffffff" />
    <path
       style="font-weight:normal;font-size:108.4px;font-family:'Caeciliae Staffless';-inkscape-font-specification:'Caeciliae Staffless';fill:#ffffff"
       d="m 758.81634,475.8807 h -1.7344 v -83.0344 h 1.7344 z"
       id="path71" />
    <path
       style="font-weight:normal;font-size:108.4px;font-family:'Caeciliae Staffless';-inkscape-font-specification:'Caeciliae Staffless';fill:#ffffff"
       d="m 769.65634,475.8807 v -83.0344 h 1.626 v 83.0344 z"
       id="path70" />
    <path
       style="font-weight:normal;font-size:108.4px;font-family:'Caeciliae Staffless';-inkscape-font-specification:'Caeciliae Staffless';fill:#ffffff"
       d="m 631.39104,467.4255 q -0.8672,0.7588 -2.168,0.7588 -1.1924,0 -2.0596,-0.7588 -0.8672,-0.8672 -0.8672,-2.168 0,-1.3008 0.8672,-2.0596 0.8672,-0.8672 2.0596,-0.8672 1.3008,0 2.168,0.8672 0.8672,0.7588 0.8672,2.0596 0,1.3008 -0.8672,2.168 z"
       id="path69" />
    <path
       style="font-weight:normal;font-size:108.4px;font-family:'Caeciliae Staffless';-inkscape-font-specification:'Caeciliae Staffless';fill:#ffffff"
       d="m 615.67304,466.4499 q 6.9376,0 6.9376,4.0108 v 13.1164 q -2.2764,-2.2764 -6.9376,-2.2764 -4.6612,0 -6.9376,2.2764 v -13.1164 q 0,-4.0108 6.9376,-4.0108 z"
       id="path68" />
    <path
       style="font-weight:normal;font-size:108.4px;font-family:'Caeciliae Staffless';-inkscape-font-specification:'Caeciliae Staffless';fill:#ffffff"
       d="m 409.92254,452.8999 q 6.9376,0 6.9376,4.0108 v 13.1164 q -2.2764,-2.2764 -6.9376,-2.2764 -4.6612,0 -6.9376,2.2764 v -13.1164 q 0,-4.0108 6.9376,-4.0108 z"
       id="path67" />
    <path
       style="font-weight:normal;font-size:108.4px;font-family:'Caeciliae Staffless';-inkscape-font-specification:'Caeciliae Staffless';fill:#ffffff"
       d="m 330.18854,425.7999 q 6.9376,0 6.9376,4.0108 v 13.1164 q -2.2764,-2.2764 -6.9376,-2.2764 -3.4688,0 -5.6368,1.3008 v 13.2248 h -1.3008 v -25.3656 q 0,-4.0108 6.9376,-4.0108 z"
       id="path66" />
    <path
       style="font-weight:normal;font-size:108.4px;font-family:'Caeciliae Staffless';-inkscape-font-specification:'Caeciliae Staffless';fill:#ffffff"
       d="m 344.06374,439.3499 q 7.046,0 7.046,4.0108 v 13.1164 q -2.2764,-2.2764 -6.9376,-2.2764 -4.6612,0 -6.9376,2.2764 v -13.1164 q 0,-4.0108 6.8292,-4.0108 z"
       id="path65" />
    <path
       style="font-weight:normal;font-size:108.4px;font-family:'Caeciliae Staffless';-inkscape-font-specification:'Caeciliae Staffless';fill:#ffffff"
       d="m 167.96649,455.3931 q -0.6504,-3.1436 -4.9864,-3.1436 -3.794,0 -6.2872,1.7344 v -10.5148 q 0,-4.1192 6.2872,-4.1192 6.3956,0 6.3956,4.1192 v 24.8236 q 0,0.542 -0.6504,0.6504 -0.6504,0.1084 -2.4932,0.1084 -0.4336,0 -1.8428,0 -1.3008,0 -2.2764,0 -1.084,0 -2.4932,0 -1.4092,0 -1.7344,0 -1.5176,0 -1.9512,-0.1084 -0.4336,-0.1084 -0.4336,-0.542 v -11.382 q 0,-0.7588 0.542,-0.7588 h 0.3252 q 0.542,0.1084 5.42,0.1084 0.6504,0 1.5176,0 0.8672,0 1.1924,0 1.8428,0 2.4932,-0.1084 0.7588,-0.2168 0.9756,-0.8672 z"
       id="path64" />
    <path
       style="font-weight:normal;font-size:108.4px;font-family:'Caeciliae Staffless';-inkscape-font-specification:'Caeciliae Staffless';fill:#ffffff"
       d="m 72.74723,416.8027 q -4.0108,0 -6.504,-2.6016 -2.4932,-2.6016 -2.4932,-6.8292 v -27.2084 q 0,-4.2276 2.3848,-6.7208 2.4932,-2.6016 6.6124,-2.6016 2.6016,0 3.6856,1.5176 1.1924,1.4092 1.1924,3.252 v 14.9592 l -0.8672,-0.7588 q -2.71,-2.3848 -6.1788,-2.3848 -2.4932,0 -4.2276,1.8428 -1.7344,1.8428 -1.7344,4.4444 0,2.71 1.7344,4.5528 1.7344,1.8428 4.2276,1.8428 3.5772,0 6.1788,-2.2764 l 0.8672,-0.8672 v 15.0676 q 0,2.168 -1.4092,3.4688 -1.3008,1.3008 -3.4688,1.3008 z"
       id="text54" />
  </g>
  <text
     xml:space="preserve"
     style="font-style:normal;font-variant:normal;font-weight:normal;font-stretch:normal;font-size:107.067px;font-family:'Caeciliae Staffless';-inkscape-font-specification:'Caeciliae Staffless';fill:#ffffff"
     x="63.750031"
     y="215.61331"
     id="text71"><tspan
       sodipodi:role="line"
       id="tspan71"
       x="63.750031"
       y="215.61331" /></text>
  <g
     id="g72"
     transform="translate(0,9.15893)"
     style="fill:#ffffff">
    <text
       xml:space="preserve"
       style="font-style:normal;font-variant:normal;font-weight:normal;font-stretch:normal;font-size:69.3333px;font-family:Arial;-inkscape-font-specification:Arial;fill:#ffffff"
       x="100.4323"
       y="306.08984"
       id="text51"><tspan
         sodipodi:role="line"
         id="tspan51"
         x="100.4323"
         y="306.08984"
         style="font-weight:bold;font-size:69.3333px;fill:#ffffff">Glory to you, Word of God,</tspan></text>
    <use
       xlink:href="#G"
       id="use3-2"
       transform="translate(-0.002,67.6763)"
       style="font-weight:bold;font-size:69.333px;font-family:Arial;fill:#ffffff" />
    <path
       style="font-weight:normal;font-size:108.4px;font-family:'Caeciliae Staffless';-inkscape-font-specification:'Caeciliae Staffless';fill:#ffffff"
       d="m 1216.25,210.46067 q -6.0704,-0.9756 -6.0704,-4.1192 v -14.9592 q 1.9512,1.7344 4.7696,1.7344 v -18.428 q 0,-1.626 0.542,-1.626 0.1084,0 0.1084,0 0.6504,0.1084 0.6504,2.71 z"
       id="path63" />
    <path
       style="font-weight:normal;font-size:108.4px;font-family:'Caeciliae Staffless';-inkscape-font-specification:'Caeciliae Staffless';fill:#ffffff"
       d="m 1059.1536,147.26347 v -27.1 h 1.626 v 27.1 z"
       id="path62" />
    <path
       style="font-weight:normal;font-size:108.4px;font-family:'Caeciliae Staffless';-inkscape-font-specification:'Caeciliae Staffless';fill:#ffffff"
       d="m 918.42564,173.49627 q -0.8672,0.8672 -2.0596,0.8672 -1.084,0 -2.0596,-0.8672 -0.8672,-0.8672 -0.8672,-2.0596 0,-1.3008 0.8672,-2.168 0.9756,-0.8672 2.0596,-0.8672 1.1924,0 2.0596,0.8672 0.9756,0.8672 0.9756,2.168 0,1.1924 -0.9756,2.0596 z"
       id="path61" />
    <path
       style="font-weight:normal;font-size:108.4px;font-family:'Caeciliae Staffless';-inkscape-font-specification:'Caeciliae Staffless';fill:#ffffff"
       d="m 902.81604,165.79987 q 6.9376,0 6.9376,4.0108 v 13.1164 q -2.2764,-2.2764 -6.9376,-2.2764 -4.6612,0 -6.9376,2.2764 v -13.1164 q 0,-4.0108 6.9376,-4.0108 z"
       id="path60" />
    <path
       style="font-weight:normal;font-size:108.4px;font-family:'Caeciliae Staffless';-inkscape-font-specification:'Caeciliae Staffless';fill:#ffffff"
       d="m 765.06564,152.24987 q 6.9376,0 6.9376,4.0108 v 13.1164 q -2.2764,-2.2764 -6.9376,-2.2764 -4.6612,0 -6.9376,2.2764 v -13.1164 q 0,-4.0108 6.9376,-4.0108 z"
       id="path59" />
    <path
       style="font-weight:normal;font-size:108.4px;font-family:'Caeciliae Staffless';-inkscape-font-specification:'Caeciliae Staffless';fill:#ffffff"
       d="m 445.23944,222.60147 q -1.084,0 -2.4932,0 -1.4092,0 -1.7344,0 -1.5176,0 -1.9512,-0.1084 -0.4336,-0.1084 -0.4336,-0.542 v -11.382 q 0,-0.7588 0.542,-0.7588 h 0.3252 q 0.542,0.1084 5.42,0.1084 0.542,0 1.4092,0 0.9756,0 1.3008,0 2.0596,0 2.8184,-0.2168 0.7588,-0.3252 0.7588,-1.4092 v -38.5904 q 0,-2.4932 -1.1924,-3.4688 -1.1924,-1.084 -3.9024,-1.084 -3.794,0 -6.2872,1.7344 v -10.5148 q 0,-4.1192 6.2872,-4.1192 6.3956,0 6.3956,4.1192 v 65.4736 q 0,0.542 -0.6504,0.6504 -0.6504,0.1084 -2.4932,0.1084 -0.4336,0 -1.8428,0 -1.3008,0 -2.2764,0 z"
       id="path57" />
    <path
       style="font-weight:normal;font-size:108.4px;font-family:'Caeciliae Staffless';-inkscape-font-specification:'Caeciliae Staffless';fill:#ffffff"
       d="m 345.81424,206.44987 q 6.9376,0 6.9376,4.0108 v 13.1164 q -2.2764,-2.2764 -6.9376,-2.2764 -4.6612,0 -6.9376,2.2764 v -13.1164 q 0,-4.0108 6.9376,-4.0108 z"
       id="path56" />
    <path
       style="font-weight:normal;font-size:108.4px;font-family:'Caeciliae Staffless';-inkscape-font-specification:'Caeciliae Staffless';fill:#ffffff"
       d="m 262.06374,219.99987 q 6.9376,0 6.9376,4.0108 v 13.1164 q -2.2764,-2.2764 -6.9376,-2.2764 -4.6612,0 -6.9376,2.2764 v -13.1164 q 0,-4.0108 6.9376,-4.0108 z"
       id="path55" />
    <path
       style="font-weight:normal;font-size:108.4px;font-family:'Caeciliae Staffless';-inkscape-font-specification:'Caeciliae Staffless';fill:#ffffff"
       d="m 196.31331,179.34987 q 6.9376,0 6.9376,4.0108 v 13.1164 q -2.2764,-2.2764 -6.9376,-2.2764 -4.6612,0 -6.9376,2.2764 v -13.1164 q 0,-4.0108 6.9376,-4.0108 z"
       id="path54" />
    <path
       style="font-weight:normal;font-size:108.4px;font-family:'Caeciliae Staffless';-inkscape-font-specification:'Caeciliae Staffless';fill:#ffffff"
       d="m 72.74723,156.80267 q -4.0108,0 -6.504,-2.6016 -2.4932,-2.6016 -2.4932,-6.8292 v -27.2084 q 0,-4.2276 2.3848,-6.7208 2.4932,-2.6016 6.6124,-2.6016 2.6016,0 3.6856,1.5176 1.1924,1.4092 1.1924,3.252 v 14.9592 l -0.8672,-0.7588 q -2.71,-2.3848 -6.1788,-2.3848 -2.4932,0 -4.2276,1.8428 -1.7344,1.8428 -1.7344,4.4444 0,2.71 1.7344,4.5528 1.7344,1.8428 4.2276,1.8428 3.5772,0 6.1788,-2.2764 l 0.8672,-0.8672 v 15.0676 q 0,2.168 -1.4092,3.4688 -1.3008,1.3008 -3.4688,1.3008 z"
       id="text53" />
    <path
       style="font-weight:normal;font-size:108.4px;font-family:'Caeciliae Staffless';-inkscape-font-specification:'Caeciliae Staffless';fill:#ffffff"
       d="m 609.51134,136.96553 q 3.6856,0 6.6124,2.0596 3.0352,1.9512 3.0352,3.9024 0,14.092 -0.1084,14.092 -8.0216,0 -12.8996,-5.0948 -0.542,-12.3576 -0.4336,-22.9808 0,-3.4688 0,-6.8292 0,-2.2764 1.084,-2.2764 0.8672,0 0.8672,2.168 l -0.2168,24.7152 q 4.4444,4.9864 8.4552,4.9864 1.9512,0 1.9512,-1.9512 0,-1.8428 -0.9756,-2.9268 -0.8672,-1.1924 -3.6856,-2.9268 l -3.6856,-2.0596 z m 29.2679,17.7776 q -0.6504,-3.1436 -4.9864,-3.1436 -3.794,0 -6.2872,1.7344 v -10.5148 q 0,-4.1192 6.2872,-4.1192 6.3956,0 6.3956,4.1192 v 24.8236 q 0,0.542 -0.6504,0.6504 -0.6504,0.1084 -2.4932,0.1084 -0.4336,0 -1.8428,0 -1.3008,0 -2.2764,0 -1.084,0 -2.4932,0 -1.4092,0 -1.7344,0 -1.5176,0 -1.9512,-0.1084 -0.4336,-0.1084 -0.4336,-0.542 v -11.382 q 0,-0.7588 0.542,-0.7588 h 0.3252 q 0.542,0.1084 5.42,0.1084 0.6504,0 1.5176,0 0.8672,0 1.1924,0 1.8428,0 2.4932,-0.1084 0.7588,-0.2168 0.9756,-0.8672 z"
       id="text72"
       aria-label="==6b-56P" />
  </g>
</svg>
