<svg width="1250" height="254.18" fill="#fff" version="1.1" xmlns="http://www.w3.org/2000/svg" xmlns:xlink="http://www.w3.org/1999/xlink">
 <defs>
  <path id="s" d="m0-1.5v3h1250v-3zm0 40v3h1250v-3zm0 40v3h1250v-3zm0 40v3h1250v-3z"/>
  <circle id="d" cx="30.32" cy="60" r="4.4"/>
  <path id="b" d="m0 0h3v120h-3z"/>
  <path id="x" d="m1.92 60.002v50.72h-1.92v-50.72z"/>
  <path id="k" d="m13.28 74.082q-5.92 0-9.6-3.84t-3.68-10.08v-40.16q0-6.24 3.52-9.92 3.68-3.84 9.76-3.84 3.84 0 5.44 2.24 1.76 2.08 1.76 4.8v22.08l-1.28-1.12q-4-3.52-9.12-3.52-3.68 0-6.24 2.72t-2.56 6.56q0 4 2.56 6.72t6.24 2.72q5.28 0 9.12-3.36l1.28-1.28v22.24q0 3.2-2.08 5.12-1.92 1.92-5.12 1.92z"/>
  <path id="p" d="m10.24 127.36q10.24 0 10.24 5.92v19.36q-3.36-3.36-10.24-3.36t-10.24 3.36v-19.36q0-5.92 10.24-5.92z"/>
  <path id="n" d="m9.92 124.96 10.08 15.04-10.08 15.04-9.92-15.04z"/>
  <path id="2" d="m18.4 131.04q-0.96-4.64-7.36-4.64-5.6 0-9.28 2.56v-15.52q0-6.08 9.28-6.08 9.44 0 9.44 6.08v36.64q0 0.8-0.96 0.96t-3.68 0.16q-0.64 0-2.72 0-1.92 0-3.36 0-1.6 0-3.68 0t-2.56 0q-2.24 0-2.88-0.16t-0.64-0.8v-16.8q0-1.12 0.8-1.12h0.48q0.8 0.16 8 0.16 0.96 0 2.24 0t1.76 0q2.72 0 3.68-0.32 1.12-0.16 1.44-1.12z"/>
  <path id="4" d="m18.56 93.122q0-3.68-1.76-5.12-1.76-1.6-5.76-1.6-5.6 0-9.28 2.56v-15.52q0-6.08 9.28-6.08 9.44 0 9.44 6.08v76.64q0 0.8-0.96 0.96t-3.68 0.16q-0.64 0-2.72 0-1.92 0-3.36 0-1.6 0-3.68 0t-2.56 0q-2.24 0-2.88-0.16t-0.64-0.8v-16.8q0-1.12 0.8-1.12h0.48q0.8 0.16 8 0.16 0.8 0 2.08 0 1.44 0 1.92 0 3.04 0 4.16-0.48 1.12-0.32 1.12-1.92z"/>
  <path id="t" d="m0 20.002v-40h2.4v40z"/>
  <path id="h" d="m14.337 27.355c6.8285 0 10.243 1.9722 10.243 5.9198v19.367c-2.2405-2.2405-5.6553-3.3626-10.243-3.3626-4.5878 0-7.9998 1.122-10.24 3.3626v-19.367c0-3.9476 3.412-5.9198 10.24-5.9198zm14.339 0.03166v25.408h-1.9186v-25.408zm-26.757 0v25.408h-1.9186v-25.408zm12.429 3.8084c-4.2743 0-6.4117 1.3734-6.4117 4.122v11.098c1.7927-0.65306 3.9233-0.98378 6.4002-0.98378 2.4819 0 4.6197 0.3309 6.4147 0.98664h6e-3v-11.1c0-2.7486-2.1346-4.122-6.4089-4.122z"/>
 </defs>
 <g transform="translate(0 33.758)">
  <text x="-1.375" y="209.78125" font-family="Arial" font-size="50pt" font-weight="bold">Thanks be to God, alleluia, alle - luia.</text>
  <use xlink:href="#s"/>
  <use y="-40" xlink:href="#k"/>
  <use x="86" y="20" xlink:href="#h"/>
  <use x="490" y="-100" xlink:href="#p"/>
  <use x="606" y="-80" xlink:href="#p"/>
  <use x="680" y="-60" xlink:href="#p"/>
  <use x="738" y="-80" xlink:href="#2"/>
  <use x="792" y="-100" xlink:href="#p"/>
  <use x="840" xlink:href="#t"/>
  <use x="868" y="-100" xlink:href="#p"/>
  <use x="940" y="-80" xlink:href="#4"/>
  <use x="964" y="-120" xlink:href="#n"/>
  <use x="978" y="-100" xlink:href="#n"/>
  <use x="992" y="-80" xlink:href="#n"/>
  <use x="1050" y="-60" xlink:href="#p"/>
  <use x="1070" y="-80" xlink:href="#2"/>
  <use x="1114" y="-20" xlink:href="#x"/>
  <use x="1114" y="-100" xlink:href="#p"/>
  <use x="1134" y="-80" xlink:href="#p"/>
  <use x="1134" y="-40" xlink:href="#d"/>
  <use x="1134" xlink:href="#d"/>
  <use x="1247" xlink:href="#b"/>
  <use x="1232" xlink:href="#b"/>
 </g>
</svg>
