<?xml version="1.0" encoding="UTF-8" standalone="no"?>
<svg
   width="1280"
   height="720"
   version="1.1"
   id="svg51"
   sodipodi:docname="PostGospel.svg"
   inkscape:version="1.4 (86a8ad7, 2024-10-11)"
   xmlns:inkscape="http://www.inkscape.org/namespaces/inkscape"
   xmlns:sodipodi="http://sodipodi.sourceforge.net/DTD/sodipodi-0.dtd"
   xmlns:xlink="http://www.w3.org/1999/xlink"
   xmlns="http://www.w3.org/2000/svg"
   xmlns:svg="http://www.w3.org/2000/svg">
  <sodipodi:namedview
     id="namedview51"
     pagecolor="#000000"
     bordercolor="#000000"
     borderopacity="0.25"
     inkscape:showpageshadow="2"
     inkscape:pageopacity="0.0"
     inkscape:pagecheckerboard="0"
     inkscape:deskcolor="#d1d1d1"
     inkscape:zoom="0.45976562"
     inkscape:cx="873.27103"
     inkscape:cy="246.86491"
     inkscape:window-width="1920"
     inkscape:window-height="1009"
     inkscape:window-x="-8"
     inkscape:window-y="-8"
     inkscape:window-maximized="1"
     inkscape:current-layer="g72"
     showgrid="false" />
  <defs
     id="defs51">
    <path
       id="B"
       d="M129.9 101.59c.782-1.858 2.982-2.787 6.6-2.787 3.52 0 5.671.929 6.453 2.787v12.907c-.293 0-1.027-.244-2.2-.733s-2.591-.733-4.253-.733c-1.76 0-3.227.244-4.4.733s-1.907.733-2.2.733z" />
    <path
       id="C"
       d="M227.87 109.95c-.782 0-1.369-.196-1.76-.587-.196-.293-.342-.782-.44-1.467 0-.587.147-1.027.44-1.32.587-.587 1.173-.88 1.76-.88.88 0 1.467.293 1.76.88.293.293.44.733.44 1.32 0 .391-.147.88-.44 1.467-.391.391-.929.587-1.613.587z" />
    <path
       id="D"
       d="M71.526 94.495c.293 1.173.978 2.298 2.053 3.373 1.076.978 2.2 1.467 3.373 1.467 1.858 0 3.813-.782 5.867-2.347v13.2c-1.369 1.173-2.884 1.76-4.547 1.76-.587 0-1.173-.098-1.76-.293-4.009-1.369-6.013-3.569-6.013-6.6V82.322c.098-1.076.342-2.004.733-2.787.88-2.053 2.64-3.373 5.28-3.96.587-.196 1.173-.293 1.76-.293 1.76 0 3.129.587 4.107 1.76v12.76c-1.76-1.271-3.569-1.907-5.427-1.907-1.271 0-2.542.538-3.813 1.613-1.173 1.076-1.711 2.249-1.613 3.52z" />
    <path
       id="F"
       d="M195.17 101.59l1.76-1.027v39.307h-1.76z" />
    <path
       id="G"
       d="M63.752 65.215h1152.5v1.467H63.752zm0 26.987h1152.5v1.467H63.752zm0 27.138h1152.5v1.467H63.752zm0 27.13h1152.5v1.467H63.752z" />
    <path
       id="H"
       d="M1216.2 142.215l-5.132-5.133v-8.507l3.667 3.667v-16.72h1.467z" />
  </defs>
  <g
     id="g73"
     transform="translate(0,55.271433)"
     style="fill:#ffffff">
    <text
       xml:space="preserve"
       style="font-style:normal;font-variant:normal;font-weight:normal;font-stretch:normal;font-size:69.3333px;font-family:Arial;-inkscape-font-specification:Arial;fill:#ffffff"
       x="98.434898"
       y="566.08984"
       id="text52"><tspan
         sodipodi:role="line"
         id="tspan52"
         x="98.434898"
         y="566.08984"
         style="font-weight:bold;font-size:69.3333px;fill:#ffffff">Praise to you, Lord Jesus Christ.</tspan></text>
    <use
       xlink:href="#G"
       id="use52"
       transform="translate(-0.002,327.6763)"
       style="font-weight:bold;font-size:69.333px;font-family:Arial;fill:#ffffff" />
    <text
       xml:space="preserve"
       style="font-size:108.667px;font-family:'Caeciliae Staffless';-inkscape-font-specification:'Caeciliae Staffless';text-align:start;writing-mode:lr-tb;direction:ltr;text-anchor:start;fill:#ffffff"
       x="63.75"
       y="474.47253"
       id="text2"><tspan
         sodipodi:role="line"
         id="tspan2"
         x="63.75"
         y="474.47253">5d===================================================-5p=====3p==============5p======-'||</tspan></text>
    <path
       id="text13"
       style="font-size:108.667px;font-family:'Caeciliae Staffless';-inkscape-font-specification:'Caeciliae Staffless';fill:#ffffff"
       d="m 193.71868,412.42547 c -4.63646,0 -6.95507,1.33909 -6.95507,4.01953 v 13.15039 c 1.52133,-1.52134 3.83994,-2.2832 6.95507,-2.2832 3.11512,0 5.4318,0.76186 6.95313,2.2832 V 416.445 c 0,-2.68045 -2.31668,-4.01953 -6.95313,-4.01953 z m -9.73632,0.0215 v 17.25195 h 1.30273 v -17.25195 z m 18.16796,0 v 17.25195 h 1.30274 v -17.25195 z m -8.43945,2.58593 c 2.90221,0 4.35352,0.93253 4.35352,2.79884 v 7.53516 c -1.21725,-0.44342 -2.66393,-0.66798 -4.34571,-0.66798 -1.68523,0 -3.13667,0.22468 -4.35547,0.66992 h -0.004 v -7.5371 c 0,-1.86631 1.44935,-2.79884 4.35156,-2.79884 z" />
  </g>
  <text
     xml:space="preserve"
     style="font-style:normal;font-variant:normal;font-weight:normal;font-stretch:normal;font-size:107.067px;font-family:'Caeciliae Staffless';-inkscape-font-specification:'Caeciliae Staffless';fill:#ffffff"
     x="63.750031"
     y="215.6133"
     id="text71"><tspan
       sodipodi:role="line"
       id="tspan71"
       x="63.750031"
       y="215.6133" /></text>
  <g
     id="g72"
     transform="translate(0,7.3665629)"
     style="fill:#ffffff">
    <text
       xml:space="preserve"
       style="font-style:normal;font-variant:normal;font-weight:normal;font-stretch:normal;font-size:69.3333px;font-family:Arial;-inkscape-font-specification:Arial;fill:#ffffff"
       x="100.4323"
       y="140.08984"
       id="text51"><tspan
         sodipodi:role="line"
         id="tspan51"
         x="100.4323"
         y="140.08984"
         style="font-style:italic;font-weight:normal;font-size:69.3333px;fill:#ffffff">Priest:</tspan><tspan
         sodipodi:role="line"
         x="100.4323"
         y="226.75647"
         style="font-weight:bold;font-size:69.3333px;fill:#ffffff"
         id="tspan16">The Gospel of the Lord.</tspan><tspan
         sodipodi:role="line"
         x="100.4323"
         y="313.4231"
         style="font-weight:bold;font-size:69.3333px;fill:#ffffff"
         id="tspan17" /><tspan
         sodipodi:role="line"
         x="100.4323"
         y="400.25815"
         style="font-style:italic;font-weight:normal;font-size:69.3333px;fill:#ffffff"
         id="tspan4">All:</tspan></text>
  </g>
</svg>
