<svg xmlns="http://www.w3.org/2000/svg" xmlns:xlink="http://www.w3.org/1999/xlink" width="573.392141933441" height="522.822061786652" viewBox="0 0 151.71 138.33" xmlns:v="https://vecta.io/nano"><style><![CDATA[.B{text-anchor:end}.C{font-family:Garamond}.D{font-size:4.2333px}.E{font-style:italic}]]></style><use xlink:href="#B"/><use xlink:href="#B" x="-14.128" y="4.409"/><path d="M63.559 52.457q0-.4057-.19403-.56444-.19403-.17639-.635-.17639-.61736 0-1.0231.28222v-1.711q0-.67028 1.0231-.67028 1.0407 0 1.0407.67028v2.1696zm-14.128 4.41q0-.40569-.19403-.56444-.19403-.17639-.635-.17639-.61736 0-1.0231.28222v-1.711q0-.67028 1.0231-.67028 1.0407 0 1.0407.67028v2.1696z"/><use xlink:href="#C"/><use xlink:href="#D"/><use xlink:href="#D" x="-2.26" y="-2.21"/><use xlink:href="#D" x="-4.52"/><use xlink:href="#D" x="-14.22" y="-2.21"/><use xlink:href="#C" x="-44.445" y="-2.21"/><use xlink:href="#D" x="-44.979" y="-2.21"/><path d="M71.173 108.18q1.1289 0 1.1289.65265v2.1343q-.37041-.37042-1.1289-.37042-.75846 0-1.1289.37042v-2.1343q0-.65265 1.1289-.65265z"/><use xlink:href="#E"/><use xlink:href="#E" x="-8.749"/><path d="M39.458 114.79q1.1289 0 1.1289.65265v2.1343q-.37042-.37041-1.1289-.37041-.75847 0-1.1289.37041v-2.1343q0-.65265 1.1289-.65265z"/><use xlink:href="#E" x="-41.522"/><use xlink:href="#D" x="-98.178"/><path d="M18.186 105.97q1.1289 0 1.1289.65264v2.1343q-.37042-.37041-1.1289-.37041-.75847 0-1.1289.37041v-2.1343q0-.65264 1.1289-.65264z"/><use xlink:href="#E" x="-52.775"/><use xlink:href="#F"/><use xlink:href="#D" x="12.19" y="-31.487"/><use xlink:href="#D" x="-0.22" y="-38.102"/><use xlink:href="#D" x="-2.48" y="-40.306"/><path d="M111.41 76.693q1.1289 0 1.1289.65264v2.1343q-.37041-.37041-1.1289-.37041-.75847 0-1.1289.37041v-2.1343q0-.65264 1.1289-.65264z"/><use xlink:href="#D" x="-14.34" y="-38.102"/><path d="M84.455 76.693q1.1289 0 1.1289.65264v2.1343q-.37042-.37041-1.1289-.37041-.75848 0-1.1289.37041v-2.1343q0-.65264 1.1289-.65264z"/><use xlink:href="#E" x="-11.518" y="-27.072"/><use xlink:href="#G"/><use xlink:href="#E" x="-38.065" y="-29.277"/><use xlink:href="#G" x="-24.853"/><use xlink:href="#E" x="-60.0955" y="-31.482"/><use xlink:href="#D" x="22.5" y="-60.768"/><use xlink:href="#D" x="11.45" y="-62.972"/><use xlink:href="#D" x="6.94" y="-62.972"/><use xlink:href="#D" x="4.68" y="-65.177"/><use xlink:href="#D" x="2.42" y="-62.972"/><use xlink:href="#D" x="-27.246" y="-60.768"/><use xlink:href="#D" x="-37.053" y="-58.563"/><path d="M69.415 54.027q1.1465 0 1.1465.65264v2.1343q-.37041-.37042-1.1289-.37042-.75847 0-1.1289.37042v-2.1343q0-.65264 1.1112-.65264z"/><use xlink:href="#E" x="-28.921" y="-56.353"/><use xlink:href="#E" x="-35.695" y="-56.353"/><use xlink:href="#E" x="-44.867" y="-54.148"/><use xlink:href="#E" x="-52.74" y="-56.353"/><use xlink:href="#F" y="-58.563"/><use xlink:href="#D" x="25.04" y="-90.048"/><use xlink:href="#C" x="9.13" y="-87.843"/><use xlink:href="#D" x="4.67" y="-90.048"/><use xlink:href="#C" x="-2.62" y="-92.253"/><use xlink:href="#C" x="-4.88" y="-90.048"/><use xlink:href="#G" x="62.756" y="-58.561"/><use xlink:href="#D" x="-16.33" y="-94.458"/><use xlink:href="#D" x="-21.907" y="-92.253"/><use xlink:href="#D" x="-34.361" y="-90.048"/><path d="M71.596 20.337q1.1289 0 1.1289.65264v2.1343q-.37041-.37042-1.1289-.37042-.75849 0-1.1289.37042v-2.1343q0-.65264 1.1289-.65264z"/><use xlink:href="#D" x="-53.587" y="-92.253"/><use xlink:href="#D" x="-55.845" y="-94.458"/><use xlink:href="#E" x="-8.608" y="-90.043"/><use xlink:href="#D" x="-76.306" y="-87.843"/><use xlink:href="#E" x="-31.326" y="-85.633"/><use xlink:href="#E" x="-33.584" y="-87.838"/><use xlink:href="#E" x="-35.842" y="-85.633"/><use xlink:href="#F" x="16.934" y="-87.843"/><path d="M105.32 110.51v-1.9403q.19403.70556.49389.70556.26459 0 .3175-1.0583.12348.42333.21167.59973.10583.15875.28222.15875.17639 0 .28222-.97015.19403.77612.33514.77612.19403 0 .33514-1.076v2.2578q0 .59972-.21166.59972-.15875 0-.29987-.40569-.0705.74083-.40569.74083-.26458 0-.56444-.49389-.15875.68792-.4057.68792-.17639 0-.28222-.17639-.0882-.17639-.0882-.40569zm7.22-33.693v-1.9403q.19402.70556.49389.70556.26458 0 .3175-1.0583.12347.42333.21166.59972.10584.15875.28222.15875.17639 0 .28223-.97014.19403.77611.33514.77611.19402 0 .33514-1.076v2.2578q0 .59972-.21167.59972-.15875 0-.29986-.40569-.0706.74083-.4057.74083-.26458 0-.56444-.49388-.15875.68792-.4057.68792-.17639 0-.28222-.17639-.0882-.17639-.0882-.40569zm-80.561 4.409v-1.9403q.19403.70556.49389.70556.26458 0 .3175-1.0583.12347.42333.21167.59972.10583.15875.28222.15875.17639 0 .28222-.97014.19403.77611.33514.77611.19403 0 .33514-1.076v2.2578q0 .59972-.21167.59972-.15875 0-.29986-.40569-.07056.74083-.4057.74083-.26458 0-.56444-.49389-.15875.68792-.4057.68792-.17639 0-.28222-.17639-.08819-.17639-.08819-.4057z"/><use xlink:href="#H"/><use xlink:href="#H" x="-1.694" y="-2.21"/><use xlink:href="#H" x="35.657" y="-31.49"/><use xlink:href="#H" x="32.827" y="-35.899"/><use xlink:href="#H" x="31.137" y="-38.104"/><use xlink:href="#H" x="-45.474" y="-31.49"/><use xlink:href="#H" x="-47.167" y="-33.694"/><use xlink:href="#H" x="-52.811" y="-33.694"/><use xlink:href="#H" x="-54.505" y="-35.899"/><use xlink:href="#H" x="-70.327" y="-31.49"/><use xlink:href="#H" x="-73.714" y="-38.104"/><use xlink:href="#H" x="-35.314" y="-92.256"/><use xlink:href="#H" x="-37.007" y="-94.461"/><path d="M109.68 113.35q-.0882 0-.0882-.635v-4.004q-.33514-.29986-.88194-.29986-.77612 0-1.1289.35277v-2.1343q0-.65264 1.1289-.65264 1.1289 0 1.1289.65264v6.4382q0 .2293-.15875.28222zm-20.533 4.41q-.0882 0-.0882-.635v-4.004q-.33514-.29986-.88195-.29986-.77611 0-1.1289.35278v-2.1343q0-.65264 1.1289-.65264 1.1289 0 1.1289.65264v6.4382q0 .22931-.15875.28222zm32.833-38.103q-.0882 0-.0882-.635v-4.004q-.33514-.29986-.88194-.29986-.77611 0-1.1289.35278v-2.1343q0-.65264 1.1289-.65264 1.1289 0 1.1289.65264v6.4382q0 .22931-.15875.28222zm-78.306 4.956q-.08819 0-.08819-.635v-2.346q-.33514-.29986-.88194-.29986-.77611 0-1.1289.35278v-2.1343q0-.65264 1.1289-.65264 1.1289 0 1.1289.65264v4.7801q0 .24695-.15875.28222z"/><use xlink:href="#I"/><path d="M17.127 80.203q-.08819 0-.08819-.635v-2.346q-.33514-.29986-.88194-.29986-.77611 0-1.1289.35278v-2.1343q0-.65264 1.1289-.65264 1.1289 0 1.1289.65264v4.7801q0 .24694-.15875.28222z"/><use xlink:href="#I" x="-22.031"/><path d="M53.834 25.505q-.08819 0-.08819-.635v-4.004q-.33514-.29986-.88194-.29986-.77611 0-1.1289.35278v-2.1343q0-.65264 1.1289-.65264 1.1289 0 1.1289.65264v6.4382q0 .2293-.15875.28222zm47.186 81.125q0-.65264 1.1289-.65264 1.1289 0 1.1289.65264v2.1343q-.35278-.35277-1.1465-.35277-.52916 0-.8643.29986v4.004q0 .635-.0882.635-.15875-.0529-.15875-.28222zm-64.948 6.61q0-.65264 1.1289-.65264 1.1289 0 1.1289.65264v2.1343q-.35278-.35278-1.1465-.35278-.52917 0-.86431.29987v2.346q0 .635-.08819.635-.15875-.0353-.15875-.28222z"/><use xlink:href="#J"/><use xlink:href="#J" x="41.7865" y="-29.277"/><use xlink:href="#J" x="16.9335" y="-29.277"/><use xlink:href="#J" x="58.3385" y="-58.558"/><path d="M12.788 52.475q0-.65264 1.1289-.65264 1.1289 0 1.1289.65264v2.1343q-.35278-.35278-1.1465-.35278-.52917 0-.86431.29986v4.004q0 .635-.08819.635-.15875-.05292-.15875-.28222z"/><use xlink:href="#J" y="-58.558"/><path d="M113.37 22.542q1.1289 0 1.1289.65264v2.1343q-.37042-.37042-1.1289-.37042-.56445 0-.91723.21167v4.3568h-.21166v-6.3324q0-.65264 1.1289-.65264z"/><use xlink:href="#J" x="16.9335" y="-87.838"/><path d="M20.743 22.542q1.1289 0 1.1289.65264v.74083h.01764v3.2279q.26458-.21167.89958-.21167 1.1465 0 1.1465.65264v2.1343q-.37042-.37042-1.1289-.37042-.75847 0-1.1289.37042v-4.5685q-.35278-.21167-.93486-.21167-.56444 0-.91722.21167v4.3568h-.21167v-6.3324q0-.65264 1.1289-.65264zm70.821 58.984q-.17639 0-.40569 0-.22931 0-.28223 0-.24694 0-.3175-.0176-.0705-.0176-.0705-.0882v-1.8521q0-.12348.0882-.12348h.0529q.0882.0176.88194.0176.0882 0 .22931 0 .15875 0 .21167 0 .33514 0 .45861-.0353.12347-.0529.12347-.22931v-1.8697q0-.4057-.19403-.56445-.19402-.17639-.635-.17639-.61736 0-1.023.28222v-1.711q0-.67028 1.023-.67028 1.0407 0 1.0407.67028v6.2442q0 .0882-.10584.10584-.10583.0176-.40569.0176-.0706 0-.29986 0-.21167 0-.37042 0zM72.39 79.533q0-.4057-.19403-.56445-.19403-.17638-.635-.17638-.61737 0-1.0231.28222v-1.711q0-.67027 1.0231-.67027 1.0407 0 1.0407.67027v8.449q0 .0882-.10584.10583-.10583.0176-.40569.0176-.0705 0-.29986 0-.21167 0-.37042 0-.1764 0-.40571 0-.2293 0-.28222 0-.24694 0-.3175-.0176-.0706-.0176-.0706-.0882v-1.8521q0-.12347.0882-.12347h.0529q.0882.0176.88196.0176.0882 0 .2293 0 .15875 0 .21167 0 .33514 0 .45861-.0353.12347-.0529.12347-.2293zm27.83 33.457q-.10584-.51152-.81139-.51152-.61737 0-1.0231.28222v-1.711q0-.67028 1.0231-.67028 1.0407 0 1.0407.67028v4.0393q0 .0882-.10583.10583-.10584.0176-.4057.0176-.0705 0-.29986 0-.21166 0-.37041 0-.17639 0-.4057 0-.22931 0-.28222 0-.24695 0-.3175-.0176-.0706-.0176-.0706-.0882v-1.8521q0-.12347.0882-.12347h.0529q.0882.0176.88195.0176.10583 0 .24694 0 .14111 0 .19403 0 .29986 0 .4057-.0176.12347-.0353.15875-.14111zm-48.432 0q-.10583-.51152-.81139-.51152-.61736 0-1.0231.28222v-1.711q0-.67028 1.0231-.67028 1.0407 0 1.0407.67028v4.0393q0 .0882-.10583.10583-.10583.0176-.4057.0176-.07056 0-.29986 0-.21167 0-.37042 0-.17639 0-.4057 0-.22931 0-.28222 0-.24694 0-.3175-.0176-.07056-.0176-.07056-.0882v-1.8521q0-.12347.08819-.12347h.05292q.08819.0176.88194.0176.10583 0 .24694 0 .14111 0 .19403 0 .29986 0 .40569-.0176.12347-.0353.15875-.14111zm59.082-62.967q-.10583-.51153-.81139-.51153-.61736 0-1.0231.28222v-1.711q0-.67028 1.0231-.67028 1.0407 0 1.0407.67028v4.0393q0 .08819-.10583.10583-.10583.01764-.40569.01764-.0706 0-.29987 0-.21166 0-.37041 0-.17639 0-.4057 0-.2293 0-.28222 0-.24694 0-.3175-.01764-.0705-.01764-.0705-.08819v-1.8521q0-.12347.0882-.12347h.0529q.0882.01764.88194.01764.10583 0 .24695 0 .14111 0 .19402 0 .29987 0 .4057-.01764.12347-.03528.15875-.14111zm-56.412 4.41q-.10583-.51153-.81139-.51153-.61736 0-1.0231.28222v-1.711q0-.67028 1.0231-.67028 1.0407 0 1.0407.67028v4.0393q0 .08819-.10583.10583-.10583.01764-.4057.01764-.07055 0-.29986 0-.21167 0-.37042 0-.17639 0-.4057 0-.2293 0-.28222 0-.24694 0-.3175-.01764-.07056-.01764-.07056-.08819v-1.8521q0-.12347.08819-.12347h.05292q.08819.01764.88194.01764.10583 0 .24694 0 .14111 0 .19403 0 .29986 0 .4057-.01764.12347-.03528.15875-.14111zM105.9 18.538q-.10584-.51153-.81139-.51153-.61736 0-1.0231.28222v-1.711q0-.67028 1.0231-.67028 1.0407 0 1.0407.67028v4.0393q0 .08819-.10583.10583-.10583.01764-.40569.01764-.0706 0-.29987 0-.21166 0-.37041 0-.17639 0-.4057 0-.2293 0-.28222 0-.24694 0-.3175-.01764-.0706-.01764-.0706-.0882v-1.8521q0-.12347.0882-.12347h.0529q.0882.01764.88194.01764.10583 0 .24695 0 .14111 0 .19402 0 .29986 0 .4057-.01764.12347-.03528.15875-.14111zm-89.302 6.614q-.10583-.51153-.81139-.51153-.61736 0-1.0231.28222v-1.711q0-.67028 1.0231-.67028 1.0407 0 1.0407.67028v4.0393q0 .08819-.10583.10583-.10583.01764-.4057.01764-.07056 0-.29986 0-.21167 0-.37042 0-.17639 0-.4057 0-.22931 0-.28222 0-.24694 0-.3175-.01764-.07055-.01764-.07055-.0882v-1.8521q0-.12347.08819-.12347h.05292q.08819.01764.88194.01764.10583 0 .24694 0 .14111 0 .19403 0 .29986 0 .4057-.01764.12347-.03528.15875-.14111zM151.67 83.961q-.98778-.15875-.98778-.67027v-2.4342q.3175.28222.77611.28222v-4.445q0-.38806.10583-.38806 0 0 .0176 0 .12347 0 .12347.21167 0 .10583-.0353.24694z"/><path d="M151.67 52.475q-.98778-.15875-.98778-.67028v-2.4342q.3175.28222.77611.28222v-2.9986q0-.26458.0882-.26458.0176 0 .0176 0 .10584.01764.10584.44097zm0-27.076q-.98778-.15875-.98778-.67028v-2.4342q.3175.28222.77611.28222v-4.445q0-.38806.10584-.38806 0 0 .0176 0 .12347 0 .12347.21167 0 .10583-.0353.24694zm-25.68 88.441q-.14111.14111-.33514.14111-.17639 0-.33514-.14111-.14111-.14111-.14111-.33513 0-.21167.14111-.35278.15875-.14111.33514-.14111.19403 0 .33514.14111.15875.14111.15875.35278 0 .19402-.15875.33513zm-44.428-3.3q-.14111.12348-.35278.12348-.19403 0-.33514-.12348-.14111-.14111-.14111-.35277 0-.21167.14111-.33514.14111-.14111.33514-.14111.21167 0 .35278.14111.14111.12347.14111.33514 0 .21166-.14111.35277zm-39.546 4.41q-.14111.12347-.35278.12347-.19403 0-.33514-.12347-.14111-.14111-.14111-.35278 0-.21166.14111-.33513.14111-.14111.33514-.14111.21167 0 .35278.14111.14111.12347.14111.33513 0 .21167-.14111.35278zm91.144-33.688q-.14111.12347-.35277.12347-.19403 0-.33514-.12347-.14111-.14111-.14111-.35278 0-.21166.14111-.33514.14111-.14111.33514-.14111.21166 0 .35277.14111.14112.12348.14112.33514 0 .21167-.14112.35278zM59.937 84.56q-.14111.14111-.33514.14111-.17639 0-.33514-.14111-.14111-.14112-.14111-.33514 0-.21167.14111-.35278.15875-.14111.33514-.14111.19403 0 .33514.14111.15875.14111.15875.35278 0 .19402-.15875.33514zm12.036-29.28q-.14111.14111-.33514.14111-.17639 0-.33515-.14111-.14111-.14111-.14111-.33514 0-.21167.14111-.35278.15876-.14111.33515-.14111.19403 0 .33514.14111.15875.14111.15875.35278 0 .19403-.15875.33514z"/><use xlink:href="#K"/><use xlink:href="#K" x="99.034" y="-33.69"/><path d="M44.644 25.999q-.14111.14111-.33514.14111-.17639 0-.33514-.14111-.14111-.14111-.14111-.33514 0-.21167.14111-.35278.15875-.14111.33514-.14111.19403 0 .33514.14111.15875.14111.15875.35278 0 .19403-.15875.33514zm59.376 87.751h.33514v1.6581H104.02zm-83.965 3.3h.33514v1.658H20.055zM125.35 83.361h.33514v1.6581H125.35zm-14.11-3.299h.33514v1.658H111.24zm-80.566 4.41h.33514v1.6581H30.674zM19.315 107.37v6.6146h-.21167V107.37zm83.965 0v5.274h-.21166v-5.274zM55.463 48.806v5.5915h-.21167V48.806zM17.269 107.37v4.4097h-.21167V107.37zm134.141 8.96v-13.511h.26459v13.511zm-1.77 0h-.28222v-13.511h.28222zM76.277 57.767h-.28223V44.256h.28223zM45.579 113.98v-8.8195h.26458v8.8195zm18.997-29.279v-8.8194h.26458v8.8194zM29.11 55.421v-8.8194h.26458v8.8194zm55.486 49.739v-4.4097h.26459v4.4097zm55.694-29.278v-4.4097h.26459v4.4097zM128.5 17.321v-4.4097h.26458v4.4097zm-80.275 0v-4.4097h.26458v4.4097z"/><use xlink:href="#L"/><use xlink:href="#L" x="-2.25"/><use xlink:href="#L" x="-4.51"/><path d="M109.93 103.93l-.0353.35277h-2.4342l.0529-.35277zm-6.57 0l-.0353.35277h-2.4342l.0529-.35277z"/><use xlink:href="#M"/><use xlink:href="#M" x="-2.257"/><use xlink:href="#L" x="-2.47" y="-38.103"/><use xlink:href="#M" x="-4.092" y="-35.403"/><use xlink:href="#M" x="-26.123" y="-35.403"/><use xlink:href="#M" x="-23.283" y="-60.274"/><use xlink:href="#M" x="-25.541" y="-60.274"/><use xlink:href="#L" x="-16.33" y="-92.254"/><use xlink:href="#M" x="13.406" y="-93.964"/><use xlink:href="#M" x="-1.869" y="-89.554"/><use xlink:href="#M" x="-4.127" y="-89.554"/><use xlink:href="#M" x="-6.385" y="-89.554"/><use xlink:href="#M" x="-13.687" y="-89.554"/><path d="M1.464 103.65c.28222 0 .48213.0823.59972.24695.12935.15287.19403.32926.19403.52917v2.4342l-.14111-.12347c-.29398-.2587-.62912-.38805-1.0054-.38805-.27046 0-.49389.0941-.67028.28222-.16463.17639-.26458.37629-.29986.59973v.28222c.0353.22343.13524.42921.29986.61736.17639.18815.39982.28223.67028.28223.38806 0 .7232-.12347 1.0054-.37042l.14111-.14111v2.4518c0 .23518-.0764.42333-.2293.56444-.14112.14111-.32926.21167-.56445.21167-.43509 0-.78787-.14111-1.0583-.42334S0 110.05296 0 109.5944v-4.4274c0-.45861.12935-.82315.38806-1.0936.27046-.28223.62912-.42334 1.076-.42334zm0-29.285c.28222 0 .48213.08232.59972.24694.12935.15287.19403.32926.19403.52917v2.4342l-.14111-.12347c-.29398-.25871-.62912-.38806-1.0054-.38806-.27046 0-.49389.09408-.67028.28223-.16463.17639-.26458.37629-.29986.59972v.28222c.0353.22343.13524.42921.29986.61736.17639.18815.39982.28222.67028.28222.38806 0 .7232-.12347 1.0054-.37041l.14111-.14111v2.4518c0 .23519-.0764.42334-.2293.56445-.14112.14111-.32926.21167-.56445.21167-.43509 0-.78787-.14111-1.0583-.42334S0 80.76795 0 80.30939v-4.4274c0-.45861.12935-.82315.38806-1.0936.27046-.28222.62912-.42333 1.076-.42333zm0-29.281c.28222 0 .48213.08232.59972.24694.12935.15287.19403.32926.19403.52917v2.4342l-.14111-.12347c-.29398-.2587-.62912-.38806-1.0054-.38806-.27046 0-.49389.09407-.67028.28222-.16463.17639-.26458.3763-.29986.59972v.28222c.0353.22343.13524.42921.29986.61736.17639.18815.39982.28222.67028.28222.38806 0 .7232-.12347 1.0054-.37042l.14111-.14111v2.4518c0 .23518-.0764.42333-.2293.56444-.14112.14111-.32926.21167-.56445.21167-.43509 0-.78787-.14111-1.0583-.42333S0 51.48693 0 51.02827v-4.4274c0-.45861.12935-.82315.38806-1.0936.27046-.28222.62912-.42333 1.076-.42333zm9.525-29.28c.28222 0 .48213.08231.59972.24694.12935.15287.19403.32926.19403.52917v2.4342l-.14111-.12347c-.29398-.2587-.62912-.38806-1.0054-.38806-.27046 0-.49389.09407-.67028.28222-.16463.17639-.26458.3763-.29986.59972v.28222c.03528.22343.13523.42921.29986.61736.17639.18815.39982.28222.67028.28222.38806 0 .72319-.12347 1.0054-.37042l.14111-.14111v2.4518c0 .23518-.07644.42333-.2293.56444-.14111.14111-.32926.21167-.56444.21167-.43509 0-.78787-.14111-1.0583-.42333s-.4057-.65264-.4057-1.1113v-4.4274c0-.45861.12935-.82315.38806-1.0936.27046-.28222.62912-.42333 1.076-.42333zM6.1523e-7 116.05l151.67.00023v.28222l-151.67-.00023z"/><path d="M6.1523e-7 111.64l151.67.00024v.28221l-151.67-.00023zm0-4.41l151.67.00023v.28222l-151.67-.00023zm0-4.41l151.67.00023v.28222l-151.67-.00023zm0-16.055h151.67l.00024.28222h-151.67zm0-4.41h151.67v.28223h-151.67z"/><use xlink:href="#N"/><use xlink:href="#N" y="-4.41"/><use xlink:href="#N" y="-20.461"/><use xlink:href="#N" y="-24.871"/><use xlink:href="#N" y="-29.281"/><use xlink:href="#N" y="-33.691"/><path d="M9.525 28.204h142.14v.28222H9.525zm0-4.41h142.14v.28222H9.525zm0-4.41h142.14v.28222H9.525zm0-4.409h142.14v.28222H9.525z"/><g letter-spacing="0" word-spacing="0"><g font-size="5.6444" class="C"><text x="5.6665015" y="65.822739" xml:space="preserve"><tspan x="5.6665015" y="65.822739">tem - ple,    al-le   -   lu   -   ia.       It brought God's life  and his</tspan></text><text x="5.509397" y="94.995834" xml:space="preserve"><tspan x="5.509397" y="94.995834">salva             -             tion,    and the peo - ple sang</tspan></text><text x="7.4083381" y="124.25185" xml:space="preserve"><tspan x="7.4083381" y="124.25185">in joy - ful praise:   al - le - lu  -  ia,   al  -  le   -   lu  -  ia.</tspan></text><text x="144.58792" y="36.434666" xml:space="preserve" class="B"><tspan x="144.58792" y="36.434666">saw  wa - ter  flow    -    ing from the right side        of the</tspan></text></g><text x="7.9625854" y="36.434666" font-family="Caeciliae Staffless" font-size="17.639" xml:space="preserve" class="B"><tspan x="7.9625854" y="36.434666" class="C">I</tspan></text><g class="C"><g class="B"><text x="8.524992" y="17.635048" xml:space="preserve" class="D"><tspan x="8.524992" y="17.635048">VIII</tspan></text><text x="151.63037" y="11.836128" xml:space="preserve" class="D"><tspan x="151.63037" y="11.836128" class="E">Ezek 47: 1. 9</tspan></text><text x="151.653" y="4.6026502" font-size="7.0556" xml:space="preserve"><tspan x="151.653" y="4.6026502" font-weight="bold">Sprinkling of Holy Water during the Easter Season</tspan></text><text x="90.010887" y="11.46957" font-size="5.6444" xml:space="preserve" class="E"><tspan x="90.010887" y="11.46957">(Vidi Aquam)</tspan></text></g><text x="75.846497" y="131.94775" text-anchor="middle" xml:space="preserve" class="D"><tspan x="75.846497" y="131.94775">Text: © 1989 ICEL. All Rights Reserved</tspan><tspan x="75.846497" y="137.23943">Music: © 2017 Saint Meinrad Archabbey. All Rights Reserved</tspan></text></g></g><defs ><path id="B" d="M55.251 47.325q1.464 1.9226 3.6336 3.4396 2.1696 1.5169 4.004 1.7815h.15875q.54681 0 .7232-.67028v2.5929q0 .26458-.4057.26458-1.711 0-4.0922-1.5169-2.6988-1.7286-4.0217-3.2103z"/><path id="C" d="M123.45 112.59q1.1289 0 1.1289.65264v2.1343q-.37041-.37042-1.1289-.37042-.75847 0-1.1289.37042v-2.1343q0-.65264 1.1289-.65264z"/><path id="D" d="M118.41 112.59q1.1289 0 1.1289.65264v2.1343q-.37042-.37042-1.1289-.37042-.75848 0-1.1289.37042v-2.1343q0-.65264 1.1289-.65264z"/><path id="E" d="M68.915 110.38q1.1289 0 1.1289.65264v2.1343q-.37042-.37042-1.1289-.37042-.75847 0-1.1289.37042v-2.1343q0-.65264 1.1289-.65264z"/><path id="F" d="M11.077 112.59q1.1465 0 1.1465.65264v2.1343q-.37042-.37042-1.1289-.37042-.75847 0-1.1289.37042v-2.1343q0-.65264 1.1113-.65264z"/><path id="G" d="M52.864 83.308q1.1465 0 1.1465.65264v2.1343q-.37042-.37042-1.1289-.37042-.75848 0-1.1289.37042v-2.1343q0-.65264 1.1112-.65264z"/><path id="H" d="m92.693 114.48 1.1289 1.711-1.1289 1.6933-1.1289-1.6933z"/><path id="I" d="M36.336 84.066q-.08819 0-.08819-.635v-4.004q-.33514-.29987-.88194-.29987-.77611 0-1.1289.35278v-2.1343q0-.65264 1.1289-.65264 1.1289 0 1.1289.65264v6.4382q0 .22931-.15875.28223z"/><path id="J" d="M8.8195 110.38q1.1289 0 1.1289.65264v2.1343q-.37042-.37042-1.1289-.37042-.56444 0-.91722.21167v4.3568h-.21167v-6.3324q0-.65264 1.1289-.65264z"/><path id="K" d="M26.606 56.391q-.14111.12347-.35278.12347-.19403 0-.33514-.12347-.14111-.14111-.14111-.35278 0-.21167.14111-.33514.14111-.14111.33514-.14111.21167 0 .35278.14111.14111.12347.14111.33514 0 .21167-.14111.35278z"/><path id="L" d="M119.62 108.34l-.0353.35278h-2.4342l.0529-.35278z"/><path id="M" d="M40.675 110.05l-.03528.35278h-2.4342l.05292-.35278z"/><path id="N" d="M6.1523e-7 77.946h151.67v.28222h-151.67z"/></defs></svg>