<svg width="1280" height="720" xmlns="http://www.w3.org/2000/svg" xmlns:xlink="http://www.w3.org/1999/xlink">
  <g fill="#fff" font-family="Arial" font-size="63.999" font-weight="bold">
    <text x="103.636" y="543.351">of the Lord. Hosanna in the highest.</text>
    <text x="61.335" y="314.617">Blessed is he who comes in the name</text>
    <use xlink:href="#B"/>
    <use xlink:href="#C"/>
    <use xlink:href="#D"/>
    <use xlink:href="#D" x="108.422" y="-13.488"/>
    <use xlink:href="#D" x="191.884" y="-26.977"/>
    <use xlink:href="#D" x="309.887" y="-26.977"/>
    <use xlink:href="#E"/>
    <use xlink:href="#D" x="454.824" y="-13.488"/>
    <use xlink:href="#D" x="549.808" y="-40.393"/>
    <use xlink:href="#D" x="721.6" y="-26.977"/>
    <use xlink:href="#D" x="864.605" y="-13.488"/>
    <use xlink:href="#D" x="955.753" y="-26.977"/>
    <path d="m1216.25 225.836-5.076-5.076v-8.413l3.626 3.626V199.44h1.45z"/>
    <use xlink:href="#B" y="227.659"/>
    <use xlink:href="#C" y="227.659"/>
    <use xlink:href="#D" x="-19.462" y="214.188"/>
    <use xlink:href="#D" x="116.122" y="227.655"/>
    <use xlink:href="#D" x="211.093" y="227.655"/>
    <use xlink:href="#E" x="-98.794" y="253.774"/>
    <path d="M454.752 391.42h1.45v81.23h-1.45z"/>
    <use xlink:href="#D" x="395.452" y="254.351"/>
    <path d="M616.754 443.067c1.063 0 2.128 1.74 3.191 5.222.967 3.288 1.45 6.527 1.45 9.718 0 4.158-.87 6.672-2.61 7.542-1.258.678-2.901 1.016-4.932 1.016-1.838 0-3.674-.435-5.512-1.306-.387-.097-.58-.193-.58-.29v-11.894c1.257 1.16 2.32 1.789 3.19 1.886.87.193 1.693.29 2.467.29h.29c1.933 0 3.626-.628 5.076-1.886.387-.387.58-.87.58-1.45 0-2.03-.677-4.497-2.03-7.398a8.441 8.441 0 0 0-.725-.87v-.435z"/>
    <path d="M617.336 440.447h.29c1.644 0 2.901.533 3.771 1.596V458l-1.45 5.366v-12.764c0-.773-.628-1.208-1.886-1.305h-.58c-.967 0-1.837.483-2.61 1.45l-.581.29v-8.268c.677-1.547 1.692-2.32 3.046-2.32z"/>
    <use xlink:href="#D" x="582.298" y="214.32"/>
    <use xlink:href="#D" x="625.398" y="214.32"/>
    <use xlink:href="#D" x="768.404" y="200.695"/>
    <path d="m994.733 439.151 1.74-.145v38.438h-1.74z"/>
    <path d="M1007.644 453.068c-2.127-2.224-4.109-3.433-5.947-3.626-2.03-.194-4.351.338-6.962 1.595v-11.894c1.74-.967 3.433-1.45 5.077-1.45a9.53 9.53 0 0 1 2.32.29c2.419.677 4.255 2.128 5.513 4.351z"/>
    <path d="M1003.596 462.646c-1.353 0-2.368-.823-3.046-2.466v-8.268l.58.435c.774.968 1.644 1.45 2.611 1.45l.58-.144c1.258-.097 1.886-.483 1.886-1.16v-10.88l1.45.726v18.566c-.87 1.16-2.127 1.74-3.77 1.74z"/>
    <path d="M1101.703 468.308c-3.288 0-5.125-.097-5.512-.29-.678-.097-1.016-.725-1.016-1.886v-8.993c0-.967.338-1.499 1.016-1.596h8.123c1.063 0 1.837-.532 2.32-1.595v-15.086c.774.678 1.258 1.548 1.45 2.611v24.659c0 1.16-.241 1.837-.724 2.03-.387.097-2.273.145-5.657.145z"/>
    <use xlink:href="#E" x="646.819" y="253.774"/>
    <use xlink:href="#D" x="956.538" y="214.188"/>
    <use xlink:href="#E" x="646.819" y="227.66"/>
    <path d="M1203.34 390.834v81.808h12.91v-81.808zm1.451 1.449h10.008v78.908h-10.008z" />
  </g>
  <defs>
    <path id="B" d="M63.75 163.18h1152.5v1.451H63.75Zm0 26.686h1152.5v1.45H63.75Zm0 26.834h1152.5v1.45H63.75Zm0 26.831h1152.5v1.45H63.75Z"/>
    <path id="C" d="M71.436 192.078c.29 1.16.967 2.273 2.03 3.336 1.064.967 2.176 1.45 3.337 1.45 1.837 0 3.77-.773 5.801-2.32v13.053c-1.353 1.16-2.853 1.74-4.496 1.74a5.475 5.475 0 0 1-1.74-.29c-3.965-1.352-5.947-3.528-5.947-6.526v-22.48c.097-1.064.338-1.983.725-2.757.87-2.03 2.61-3.336 5.221-3.916a5.475 5.475 0 0 1 1.74-.29c1.741 0 3.094.58 4.062 1.74v12.619c-1.74-1.257-3.53-1.885-5.367-1.885-1.257 0-2.514.532-3.77 1.595-1.161 1.063-1.693 2.224-1.596 3.48z"/>
    <path id="D" d="M138.462 226.127c.773-1.837 2.949-2.756 6.527-2.756 3.48 0 5.608.919 6.381 2.756v12.763c-.29 0-1.015-.242-2.175-.725s-2.563-.725-4.206-.725c-1.74 0-3.191.242-4.352.725-1.16.483-1.885.725-2.175.725z"/>
    <path id="E" d="M467.795 207.416c-.773 0-1.353-.193-1.74-.58-.193-.29-.338-.773-.435-1.45 0-.58.145-1.016.435-1.306.58-.58 1.16-.87 1.74-.87.87 0 1.45.29 1.74.87.29.29.436.725.436 1.305 0 .387-.145.87-.435 1.45-.387.388-.919.581-1.596.581z"/>
  </defs>
</svg>