<svg xmlns="http://www.w3.org/2000/svg" xmlns:xlink="http://www.w3.org/1999/xlink" width="1280" height="720"><g fill="#fff" font-family="Arial" font-size="69.333" font-weight="bold"><text x="66.495" y="218.412">Holy, Holy, Holy Lord God of Hosts</text><text x="66.495" y="433.172">Heaven and earth are full of your</text><text x="68.277" y="647.087">glory. Hosanna in the highest.</text><use xlink:href="#G"/><use xlink:href="#D"/><use xlink:href="#G" y="214.755"/><use xlink:href="#D" y="214.755"/><use xlink:href="#G" y="429.525"/><use xlink:href="#D" y="429.525"/><use xlink:href="#H" y="429.525"/><use xlink:href="#B"/><use xlink:href="#F"/><use xlink:href="#B" x="65.27"/><use xlink:href="#C"/><use xlink:href="#B" x="78.32" y="13.64"/><use xlink:href="#C" y="26.4"/><path d="M253.25 58.322h1.467v16.573h-1.467z"/><use xlink:href="#B" x="182.89"/><use xlink:href="#F" x="182.89"/><use xlink:href="#B" x="248.16"/><use xlink:href="#C" x="182.9"/><use xlink:href="#B" x="261.22" y="13.64"/><use xlink:href="#C" x="182.9" y="26.4"/><path d="M436.14 58.322h1.467v16.573h-1.467z"/><use xlink:href="#B" x="367.79" y="27.28"/><use xlink:href="#B" x="428" y="13.64"/><use xlink:href="#B" x="529.38"/><use xlink:href="#B" x="555.48"/><use xlink:href="#B" x="713.07"/><use xlink:href="#B" x="819.39" y="13.64"/><use xlink:href="#B" x="954.7"/><use xlink:href="#C" x="876.33"/><path d="M1170 65.802h1.467v82.133h-1.467z"/><use xlink:href="#H"/><use xlink:href="#B" y="242.04"/><use xlink:href="#B" x="115.37" y="228.4"/><use xlink:href="#B" x="214.64" y="214.76"/><use xlink:href="#B" x="356.02" y="214.76"/><use xlink:href="#B" x="395.18" y="214.76"/><use xlink:href="#B" x="545.6" y="228.4"/><use xlink:href="#B" x="694.98" y="201.12"/><use xlink:href="#B" x="793.3" y="214.76"/><use xlink:href="#B" x="918.6" y="214.76"/><use xlink:href="#H" y="201.115"/><use xlink:href="#B" x="14.73" y="443.16"/><use xlink:href="#B" x="81.89" y="456.8"/><use xlink:href="#C" x="3.57" y="455.92"/><path d="M276 495.327h1.467v82.133h-1.467z"/><use xlink:href="#B" x="207.41" y="456.8"/><use xlink:href="#B" x="284.68" y="443.16"/><use xlink:href="#B" x="409.1" y="429.52"/><use xlink:href="#B" x="458.26" y="429.52"/><use xlink:href="#B" x="613.64" y="429.52"/><use xlink:href="#B" x="702.91" y="443.16"/><use xlink:href="#B" x="818.17" y="429.52"/><use xlink:href="#C" x="739.86" y="429.52"/><path d="M1170 495.327h1.467v82.133h-1.467z"/></g><defs><path id="B" d="M129.9 101.59c.782-1.858 2.982-2.787 6.6-2.787 3.52 0 5.671.929 6.453 2.787v12.907c-.293 0-1.027-.244-2.2-.733s-2.591-.733-4.253-.733c-1.76 0-3.227.244-4.4.733s-1.907.733-2.2.733z"/><path id="C" d="M227.87 109.95c-.782 0-1.369-.196-1.76-.587-.196-.293-.342-.782-.44-1.467 0-.587.147-1.027.44-1.32.587-.587 1.173-.88 1.76-.88.88 0 1.467.293 1.76.88.293.293.44.733.44 1.32 0 .391-.147.88-.44 1.467-.391.391-.929.587-1.613.587z"/><path id="D" d="M71.526 94.495c.293 1.173.978 2.298 2.053 3.373 1.076.978 2.2 1.467 3.373 1.467 1.858 0 3.813-.782 5.867-2.347v13.2c-1.369 1.173-2.884 1.76-4.547 1.76-.587 0-1.173-.098-1.76-.293-4.009-1.369-6.013-3.569-6.013-6.6V82.322c.098-1.076.342-2.004.733-2.787.88-2.053 2.64-3.373 5.28-3.96.587-.196 1.173-.293 1.76-.293 1.76 0 3.129.587 4.107 1.76v12.76c-1.76-1.271-3.569-1.907-5.427-1.907-1.271 0-2.542.538-3.813 1.613-1.173 1.076-1.711 2.249-1.613 3.52z"/><path id="F" d="M195.17 101.59l1.76-1.027v39.307h-1.76z"/><path id="G" d="M63.752 65.215h1152.5v1.467H63.752zm0 26.987h1152.5v1.467H63.752zm0 27.138h1152.5v1.467H63.752zm0 27.13h1152.5v1.467H63.752z"/><path id="H" d="M1216.2 142.215l-5.132-5.133v-8.507l3.667 3.667v-16.72h1.467z"/></defs></svg>