<svg xmlns="http://www.w3.org/2000/svg" xmlns:xlink="http://www.w3.org/1999/xlink" width="1280" height="720">
 <g fill="#fff" font-family="Arial" font-size="66.667" font-weight="bold">
  <path d="M1133.1 406v119h18.779V406H1133.1zm2.1114 2.1094h14.559v114.79h-14.559v-114.79z"/>
  <use xlink:href="#B"/>
  <use xlink:href="#C"/>
  <use xlink:href="#B" y="-37.98"/>
  <use xlink:href="#C" x="-18.78" y="-19.62"/>
  <path d="m858.49 477.95 2.532-1.899v55.915h-2.532z"/>
  <use xlink:href="#C" x="-136.76"/>
  <path d="M740.51 456.85l2.529 1.477.003 55.071h-2.532z"/>
  <use xlink:href="#C" x="-153.01" y="-39.25"/>
  <path d="m724.26 458.32 2.532-1.477v56.548h-2.532z"/>
  <use xlink:href="#C" x="-270.47" y="-19.62"/>
  <use xlink:href="#D"/>
  <path d="m500.36 396.08h2.11v23.843h-2.11z"/>
  <use xlink:href="#C" x="-499.07" y="-19.62"/>
  <use xlink:href="#C" x="-610.53"/>
  <use xlink:href="#C" x="-752.93" y="18.36"/>
  <use xlink:href="#E"/>
  <path d="M1234.1 522.89V525H42.4v-2.11zm0-39.03v2.11H42.4v-2.11zm0-39.04v2.11H42.4v-2.11zm0-38.82v2.11H42.4V406zm.2-180.24l-7.385-7.385v-12.238l5.275 5.275v-24.054h2.11z"/>
  <use xlink:href="#C" x="265.83" y="-329.62"/>
  <use xlink:href="#C" x="181.93" y="-310"/>
  <use xlink:href="#C" x="25.66" y="-329.62"/>
  <use xlink:href="#C" x="-64.23" y="-329.62"/>
  <use xlink:href="#C" x="-191.69" y="-329.62"/>
  <use xlink:href="#C" x="-310.36" y="-329.62"/>
  <path d="m489.24 86.079h2.11v23.843h-2.11z"/>
  <use xlink:href="#C" x="-466.81" y="-329.62"/>
  <use xlink:href="#D" x="-196.34" y="-310"/>
  <use xlink:href="#C" x="-602.26" y="-310"/>
  <use xlink:href="#C" x="-758.49" y="-310"/>
  <use xlink:href="#E" y="-310"/>
  <path d="M42.394 215v-2.11h1191.7V215zm0-39.04v-2.11h1191.7v2.11zM1234.1 134.82v2.11H42.4v-2.11zM42.394 98.106v-2.11h1191.7v2.11z"/>
  <text x="113.933" y="627">of the world, grant us peace.</text>
  <text x="69.267" y="319">Lamb of God, you take away the sins</text>
 </g>
 <defs>
  <path id="B" d="M905.54 508.33c-1.125 0-1.969-.281-2.532-.844-.281-.422-.492-1.125-.633-2.11 0-.844.211-1.477.633-1.899.844-.844 1.688-1.266 2.532-1.266 1.266 0 2.11.422 2.532 1.266.422.422.633 1.055.633 1.899 0 .563-.211 1.266-.633 2.11-.563.563-1.336.844-2.321.844z"/>
  <path id="C" d="M877.27 497.57c1.125-2.673 4.29-4.009 9.495-4.009 5.064 0 8.159 1.336 9.284 4.009v18.568c-.422 0-1.477-.352-3.165-1.055s-3.728-1.055-6.119-1.055c-2.532 0-4.642.352-6.33 1.055s-2.743 1.055-3.165 1.055z"/>
  <path id="D" d="M616.3 518.67c-4.783 0-7.455-.141-8.018-.422-.985-.141-1.477-1.055-1.477-2.743v-13.082c0-1.407.492-2.18 1.477-2.321h11.816c1.547 0 2.673-.774 3.376-2.321v-21.944c1.125.985 1.829 2.251 2.11 3.798v35.87c0 1.688-.352 2.673-1.055 2.954-.563.141-3.306.211-8.229.211z"/>
  <path id="E" d="M53.577 447.24c.422 1.688 1.407 3.306 2.954 4.853 1.547 1.407 3.165 2.11 4.853 2.11 2.673 0 5.486-1.125 8.44-3.376v18.99c-1.969 1.688-4.15 2.532-6.541 2.532-.844 0-1.688-.141-2.532-.422-5.767-1.969-8.651-5.134-8.651-9.495v-32.705c.141-1.547.492-2.884 1.055-4.009 1.266-2.954 3.798-4.853 7.596-5.697.844-.281 1.688-.422 2.532-.422 2.532 0 4.501.844 5.908 2.532v18.357c-2.532-1.829-5.134-2.743-7.807-2.743-1.829 0-3.657.774-5.486 2.321-1.688 1.547-2.462 3.235-2.321 5.064z"/>
 </defs>
</svg>