<svg xmlns="http://www.w3.org/2000/svg" xmlns:xlink="http://www.w3.org/1999/xlink" width="1280" height="720">
  <defs>
    <path id="a" d="M64 65h1152v2H64zm0 27h1152v2H64zm0 27h1152v2H64zm0 27h1152v2H64z"/>
  </defs>
  <text xml:space="preserve" x="98" y="599" fill="#fff" font-family="Arial" font-size="69.3" font-weight="400" style="-inkscape-font-specification:Arial"><tspan x="98" y="599" font-weight="700">Lord Jesus Christ</tspan></text>
  <use xlink:href="#a" fill="#fff" font-family="Arial" font-size="69.3" font-weight="700" transform="translate(0 361)"/>
  <path fill="#fff" d="M759 509h-2v-83h2zm11 0v-83h1v83zm-139-9-2 1-2-1-1-2 1-2 2-1 2 1 1 2-1 2zm-15 0q7 0 7 4v13q-3-3-7-3-5 0-7 3v-13q0-4 7-4zm-206-14q7 0 7 4v13q-2-2-7-2t-7 2v-13q0-4 7-4zm-80-27q7 0 7 4v13q-2-2-7-2l-5 1v13h-2v-25q0-4 7-4zm14 13q7 0 7 4v14q-2-3-7-3-4 0-7 3v-14q0-4 7-4zm-176 16q-1-3-5-3t-6 2v-10q0-5 6-5t6 5v25h-13v-13h11l1-1zm-95-38q-4 0-7-3-2-2-2-7v-27q0-4 2-6 3-3 7-3l3 1 2 4v15l-1-1q-3-3-6-3t-5 2l-1 5 1 4q2 2 5 2l6-2 1-1v15l-2 4-3 1z" font-family="Caeciliae Staffless" font-size="108.4" font-weight="400" style="-inkscape-font-specification:'Caeciliae Staffless'"/>
  <text xml:space="preserve" x="100" y="315" fill="#fff" font-family="Arial" font-size="69.3" font-weight="400" style="-inkscape-font-specification:Arial"><tspan x="100" y="315" font-weight="700">Glory to you, Word of God,</tspan></text>
  <use xlink:href="#a" fill="#fff" font-family="Arial" font-size="69.3" font-weight="700" transform="translate(0 77)"/>
  <path fill="#fff" d="M1216 220q-6-1-6-4v-15l5 1v-20h1v3zm-157-64v-27h2v27zm-141 27-2 1-2-1-1-2 1-3h4l1 3-1 2zm-15-8q7 0 7 4v13q-3-2-7-2-5 0-7 2v-13q0-4 7-4zm-138-14q7 0 7 4v14q-2-3-7-3t-7 3v-14q0-4 7-4zm-320 71h-6v-13h11l1-2v-38l-1-4-4-1q-4 0-6 2v-10q0-5 6-5 7 0 7 5v65l-1 1h-7zm-99-16q7 0 7 4v13q-3-3-7-3-5 0-7 3v-13q0-4 7-4zm-84 13q7 0 7 4v13q-2-2-7-2t-7 2v-13q0-4 7-4zm-66-40q7 0 7 4v13q-2-3-7-3-4 0-7 3v-13q0-4 7-4zM73 166q-4 0-7-3-2-2-2-6v-28q0-4 2-6 3-3 7-3 2 0 3 2 2 1 2 3v15l-1-1-6-2-5 1-1 5 1 4q2 2 5 2l6-2 1-1v15l-2 4-3 1z" font-family="Caeciliae Staffless" font-size="108.4" font-weight="400" style="-inkscape-font-specification:'Caeciliae Staffless'"/>
  <path fill="#fff" d="m610 146 6 2q3 2 3 4v14q-8 0-13-5v-30l1-2 1 2-1 25q5 5 9 5 2 0 2-2l-1-3-4-3-3-2zm29 18q-1-3-5-3l-6 1v-10q0-4 6-4t6 4v25l-3 1h-8l-2-1h-1v-11l1-1h11l1-1z" aria-label="==6b-56P" font-family="Caeciliae Staffless" font-size="108.4" font-weight="400" style="-inkscape-font-specification:'Caeciliae Staffless'"/>
</svg>