<svg width="1280" height="720" xmlns:xlink="http://www.w3.org/1999/xlink" xmlns="http://www.w3.org/2000/svg"><defs><path id="a" d="M63.752 65.215h1152.5v1.467H63.752zm0 26.987h1152.5v1.467H63.752zm0 27.138h1152.5v1.467H63.752zm0 27.13h1152.5v1.467H63.752z"/></defs><g transform="translate(0 33.064)" style="fill:#fff"><text xml:space="preserve" style="font-style:normal;font-variant:normal;font-weight:400;font-stretch:normal;font-size:69.3333px;font-family:Arial;-inkscape-font-specification:Arial;fill:#fff" x="98.435" y="566.09"><tspan x="98.435" y="566.09" style="font-weight:700;font-size:69.3333px;fill:#fff">Lord Jesus Christ</tspan></text><use xlink:href="#a" transform="translate(-.002 327.676)" style="font-weight:700;font-size:69.333px;font-family:Arial;fill:#fff"/><path style="font-weight:400;font-size:108.4px;font-family:'Caeciliae Staffless';-inkscape-font-specification:'Caeciliae Staffless';fill:#fff" d="M758.816 475.88h-1.734v-83.034h1.734zM769.656 475.88v-83.034h1.626v83.035zM631.391 467.425q-.867.76-2.168.76-1.192 0-2.06-.76-.867-.867-.867-2.168 0-1.3.867-2.06.868-.866 2.06-.866 1.3 0 2.168.867.867.759.867 2.06 0 1.3-.867 2.168zM615.673 466.45q6.938 0 6.938 4.01v13.117q-2.277-2.276-6.938-2.276t-6.938 2.276v-13.116q0-4.011 6.938-4.011zM409.923 452.9q6.937 0 6.937 4.01v13.117q-2.276-2.276-6.937-2.276-4.662 0-6.938 2.276v-13.116q0-4.011 6.938-4.011zM330.189 425.8q6.937 0 6.937 4.01v13.117q-2.276-2.276-6.937-2.276-3.47 0-5.637 1.3v13.225h-1.301v-25.365q0-4.011 6.938-4.011zM344.064 439.35q7.046 0 7.046 4.01v13.117q-2.277-2.276-6.938-2.276t-6.937 2.276v-13.116q0-4.011 6.829-4.011zM167.966 455.393q-.65-3.143-4.986-3.143-3.794 0-6.287 1.734v-10.515q0-4.12 6.287-4.12 6.396 0 6.396 4.12v24.824q0 .542-.65.65-.651.109-2.494.109h-8.347q-1.517 0-1.95-.109-.435-.108-.435-.542V457.02q0-.759.542-.759h.326q.542.109 5.42.109h2.71q1.842 0 2.493-.109.759-.216.975-.867zM72.747 416.803q-4.01 0-6.504-2.602-2.493-2.602-2.493-6.83v-27.207q0-4.228 2.385-6.721 2.493-2.602 6.612-2.602 2.602 0 3.686 1.518 1.192 1.409 1.192 3.252v14.959l-.867-.759q-2.71-2.385-6.179-2.385-2.493 0-4.227 1.843-1.735 1.843-1.735 4.445 0 2.71 1.735 4.552 1.734 1.843 4.227 1.843 3.577 0 6.179-2.276l.867-.868v15.068q0 2.168-1.409 3.469-1.3 1.3-3.469 1.3z"/></g><text xml:space="preserve" style="font-style:normal;font-variant:normal;font-weight:400;font-stretch:normal;font-size:107.067px;font-family:'Caeciliae Staffless';-inkscape-font-specification:'Caeciliae Staffless';fill:#fff" x="63.75" y="215.613"/><g transform="translate(0 9.159)" style="fill:#fff"><text xml:space="preserve" style="font-style:normal;font-variant:normal;font-weight:400;font-stretch:normal;font-size:69.3333px;font-family:Arial;-inkscape-font-specification:Arial;fill:#fff" x="100.432" y="306.09"><tspan x="100.432" y="306.09" style="font-weight:700;font-size:69.3333px;fill:#fff">Glory to you, Word of God,</tspan></text><use xlink:href="#a" transform="translate(-.002 67.676)" style="font-weight:700;font-size:69.333px;font-family:Arial;fill:#fff"/><path style="font-weight:400;font-size:108.4px;font-family:'Caeciliae Staffless';-inkscape-font-specification:'Caeciliae Staffless';fill:#fff" d="M1216.25 210.46q-6.07-.975-6.07-4.119v-14.959q1.95 1.735 4.77 1.735v-18.428q0-1.626.541-1.626h.109q.65.108.65 2.71zM1059.154 147.263v-27.1h1.626v27.1zM918.426 173.496q-.868.867-2.06.867-1.084 0-2.06-.867-.867-.867-.867-2.06 0-1.3.867-2.167.976-.868 2.06-.868 1.192 0 2.06.868.975.867.975 2.168 0 1.192-.975 2.06zM902.816 165.8q6.938 0 6.938 4.01v13.117q-2.277-2.276-6.938-2.276t-6.938 2.276v-13.116q0-4.011 6.938-4.011zM765.066 152.25q6.937 0 6.937 4.01v13.117q-2.276-2.276-6.937-2.276-4.662 0-6.938 2.276v-13.116q0-4.011 6.938-4.011zM445.24 222.601h-4.228q-1.518 0-1.951-.108-.434-.108-.434-.542V210.57q0-.759.542-.759h.325q.542.109 5.42.109h2.71q2.06 0 2.819-.217.758-.325.758-1.41v-38.59q0-2.493-1.192-3.469-1.192-1.084-3.902-1.084-3.794 0-6.288 1.735v-10.515q0-4.12 6.288-4.12 6.395 0 6.395 4.12v65.474q0 .542-.65.65-.65.108-2.493.108h-4.12zM345.814 206.45q6.938 0 6.938 4.01v13.117q-2.277-2.276-6.938-2.276t-6.937 2.276v-13.116q0-4.011 6.937-4.011zM262.064 220q6.937 0 6.937 4.01v13.117q-2.276-2.276-6.937-2.276-4.661 0-6.938 2.276v-13.116q0-4.011 6.938-4.011zM196.313 179.35q6.938 0 6.938 4.01v13.117q-2.276-2.276-6.938-2.276-4.66 0-6.937 2.276v-13.116q0-4.011 6.937-4.011zM72.747 156.803q-4.01 0-6.504-2.602-2.493-2.602-2.493-6.83v-27.208q0-4.227 2.385-6.72 2.493-2.602 6.612-2.602 2.602 0 3.686 1.518 1.192 1.409 1.192 3.252v14.959l-.867-.759q-2.71-2.385-6.179-2.385-2.493 0-4.227 1.843-1.735 1.843-1.735 4.444 0 2.71 1.735 4.553 1.734 1.843 4.227 1.843 3.577 0 6.179-2.276l.867-.868v15.068q0 2.168-1.409 3.469-1.3 1.3-3.469 1.3z"/><path style="font-weight:400;font-size:108.4px;font-family:'Caeciliae Staffless';-inkscape-font-specification:'Caeciliae Staffless';fill:#fff" d="M609.511 136.966q3.686 0 6.613 2.06 3.035 1.95 3.035 3.902 0 14.092-.108 14.092-8.022 0-12.9-5.095-.542-12.358-.434-22.981v-6.83q0-2.276 1.084-2.276.868 0 .868 2.168l-.217 24.716q4.444 4.986 8.455 4.986 1.951 0 1.951-1.951 0-1.843-.975-2.927-.868-1.192-3.686-2.927l-3.686-2.06zm29.268 17.777q-.65-3.143-4.986-3.143-3.794 0-6.287 1.734v-10.515q0-4.12 6.287-4.12 6.395 0 6.395 4.12v24.824q0 .542-.65.65-.65.109-2.493.109h-8.347q-1.518 0-1.951-.109-.434-.108-.434-.542V156.37q0-.759.542-.759h.325q.542.109 5.42.109h2.71q1.843 0 2.494-.109.758-.216.975-.867z" aria-label="==6b-56P"/></g></svg>