<svg xmlns="http://www.w3.org/2000/svg" xmlns:xlink="http://www.w3.org/1999/xlink" width="1280" height="720">
 <g fill="#fff" font-family="Arial" font-size="68" font-weight="bold">
    <text x="44.998" y="302.925">Lord have mercy, Christ have mercy,</text>
    <text x="44.998" y="613.465">Lord have mercy.</text>
  <use xlink:href="#B"/>
  <use xlink:href="#C"/>
  <use xlink:href="#C" x="-101.95"/>
  <use xlink:href="#D"/>
  <use xlink:href="#C" x="-296.22" y="40.44"/>
  <use xlink:href="#C" x="-396.2"/>
  <use xlink:href="#C" x="-425.61"/>
  <use xlink:href="#C" x="-464.1" y="20.55"/>
  <use xlink:href="#D" x="-362.15" y="20.11"/>
  <use xlink:href="#B" x="622.12" y="-311.37"/>
  <use xlink:href="#E"/>
  <use xlink:href="#E" x="-97.9"/>
  <path d="M1094.9 162.65c-4.9 0-7.642-.074-8.216-.217-1.011-.143-1.514-1.154-1.514-3.029v-13.406c0-1.441.504-2.235 1.514-2.378h12.108a3.602 3.602 0 003.459-2.161v-20.44c1.154 1.011 1.875.256 2.161 1.844v36.546c0 1.875-.36 2.882-1.081 3.029-.577.143-3.389.217-8.432.217z"/>
  <use xlink:href="#E" x="-290.92" y="-19.68"/>
  <use xlink:href="#D" x="433.13" y="-330.41"/>
  <use xlink:href="#E" x="-411.4" y="-39.793"/>
  <use xlink:href="#E" x="-440.81" y="-39.793"/>
  <use xlink:href="#B" x="-.01" y="-311.38"/>
  <use xlink:href="#E" x="-622.11" y="-.01"/>
  <use xlink:href="#E" x="-724.06" y="-.01"/>
  <use xlink:href="#D" x="-.01" y="-311.38"/>
  <use xlink:href="#C" x="-296.23" y="-270.94"/>
  <use xlink:href="#E" x="-1018.31" y="-.01"/>
  <use xlink:href="#E" x="-1047.72" y="-.01"/>
  <path d="M96.892 142.97c1.154-2.738 4.396-4.11 9.73-4.11 5.19 0 8.359 1.367 9.513 4.11V162c-.434 0-1.515-.36-3.242-1.081s-3.819-1.081-6.271-1.081c-2.595 0-4.757.36-6.488 1.081S97.326 162 96.892 162z"/>
  <use xlink:href="#D" x="-362.16" y="-291.27"/>
  <path d="M624.09 420.62v121.96h19.248V420.62zm2.166 2.16h14.92v117.64h-14.92zM1233.1 109.24V231.2h19.248V109.24H1233.1zm2.166 2.16h14.92v117.64h-14.92V111.4zm-611.186-2.16V231.2h19.248V109.24zm2.166 2.16h14.92v117.64h-14.92zM39.081 423.1c.434 1.731 1.441 3.389 3.029 4.974 1.584 1.441 3.242 2.161 4.974 2.161 2.739 0 5.62-1.154 8.649-3.459v19.46c-2.018 1.731-4.253 2.595-6.705 2.595a8.092 8.092 0 01-2.595-.434c-5.911-2.018-8.866-5.26-8.866-9.73V405.15c.143-1.584.504-2.955 1.081-4.11 1.298-3.029 3.893-4.974 7.786-5.837a8.212 8.212 0 012.595-.434c2.595 0 4.613.864 6.054 2.595v18.813c-2.595-1.875-5.26-2.812-8.002-2.812-1.875 0-3.749.794-5.62 2.378-1.731 1.584-2.522 3.316-2.378 5.19zm-.008-311.38c.434 1.731 1.441 3.389 3.029 4.974 1.584 1.441 3.242 2.161 4.974 2.161 2.739 0 5.62-1.154 8.649-3.459v19.46c-2.018 1.731-4.253 2.595-6.705 2.595a8.092 8.092 0 01-2.595-.434c-5.911-2.018-8.866-5.26-8.866-9.73V93.77c.143-1.584.504-2.955 1.081-4.11 1.298-3.029 3.893-4.974 7.786-5.837a8.212 8.212 0 012.595-.434c2.595 0 4.613.864 6.054 2.595v18.813c-2.595-1.875-5.26-2.812-8.002-2.812-1.875 0-3.749.794-5.62 2.378-1.731 1.584-2.522 3.316-2.378 5.19z"/>
  <path d="M27.619 542.58v-2.161h1224.8v2.161zm0-40.01v-2.161h1224.8v2.161zm0-40v-2.161h1224.8v2.161zm0-39.79v-2.161h1224.8v2.161zm-.008-191.58v-2.161h1224.8v2.161zm0-40.01v-2.161h1224.8v2.161zm0-40v-2.161h1224.8v2.161zm0-39.79v-2.161h1224.8v2.161z"/>
 </g>
 <defs>
  <path id="B" d="M589.98 447.64c-1.154 0-2.018-.287-2.595-.864-.287-.434-.504-1.154-.647-2.161 0-.864.217-1.514.647-1.945.864-.864 1.731-1.298 2.595-1.298 1.298 0 2.161.434 2.595 1.298.434.434.647 1.081.647 1.945 0 .577-.217 1.298-.647 2.161-.577.577-1.367.864-2.378.864z"/>
  <path id="C" d="M561 433.8c1.154-2.738 4.396-4.11 9.73-4.11 5.19 0 8.359 1.367 9.513 4.11v19.03c-.434 0-1.515-.36-3.242-1.081s-3.819-1.081-6.271-1.081c-2.595 0-4.757.36-6.488 1.081s-2.808 1.081-3.242 1.081z"/>
  <path id="D" d="M468.78 474.03c-4.9 0-7.642-.074-8.216-.217-1.011-.143-1.514-1.154-1.514-3.029v-13.406c0-1.441.504-2.235 1.514-2.378h12.108a3.602 3.602 0 003.459-2.161v-20.44c1.154 1.011 1.875.256 2.161 1.844v36.546c0 1.875-.36 2.882-1.081 3.029-.577.143-3.389.217-8.433.217z"/>
  <path id="E" d="M1183.1 122.43c1.154-2.739 4.396-4.11 9.73-4.11 5.19 0 8.359 1.367 9.513 4.11v19.03c-.434 0-1.515-.36-3.242-1.081s-3.819-1.081-6.271-1.081c-2.595 0-4.757.36-6.488 1.081s-2.808 1.081-3.242 1.081z"/>
 </defs>
</svg>