<svg width="1280" height="720" xmlns:xlink="http://www.w3.org/1999/xlink" xmlns="http://www.w3.org/2000/svg"><defs><path id="b" d="M191.478 356.273h191.259v120.343H191.478z"/><path id="a" d="M63.752 65.215h1152.5v1.467H63.752zm0 26.987h1152.5v1.467H63.752zm0 27.138h1152.5v1.467H63.752zm0 27.13h1152.5v1.467H63.752z"/></defs><g transform="translate(0 55.271)" style="fill:#fff"><text xml:space="preserve" style="font-style:normal;font-variant:normal;font-weight:400;font-stretch:normal;font-size:64px;font-family:Arial;-inkscape-font-specification:Arial;fill:#fff" x="98.435" y="566.09"><tspan x="98.435" y="566.09" style="font-weight:700;font-size:64px;fill:#fff">Thanks be to God, alleluia, alle-luia.</tspan></text><use xlink:href="#a" transform="translate(-.002 327.676)" style="font-weight:700;font-size:69.333px;font-family:Arial;fill:#fff"/><text xml:space="preserve" style="font-size:108.667px;font-family:'Caeciliae Staffless';-inkscape-font-specification:'Caeciliae Staffless';text-align:start;writing-mode:lr-tb;direction:ltr;text-anchor:start;fill:#fff" x="63.75" y="474.473"><tspan x="63.75" y="474.473">7d===================================-&apos;5p=======4p====3p===45P===5p=-+-=5p====47P&apos;6n5n4n=-3p45P==54C&apos;==||</tspan></text><path style="font-size:108.667px;font-family:'Caeciliae Staffless';-inkscape-font-specification:'Caeciliae Staffless';fill:#fff" d="M195.894 425.994c-4.636 0-6.955 1.339-6.955 4.02v13.15c1.521-1.522 3.84-2.284 6.955-2.284s5.432.762 6.953 2.283v-13.15c0-2.68-2.317-4.02-6.953-4.02zm-9.736.021v17.252h1.302v-17.252zm18.168 0v17.252h1.302v-17.252zm-8.44 2.586c2.902 0 4.354.933 4.354 2.799v7.535c-1.218-.443-2.664-.668-4.346-.668-1.685 0-3.137.225-4.355.67h-.004V431.4c0-1.866 1.449-2.799 4.351-2.799z"/></g><text xml:space="preserve" style="font-style:normal;font-variant:normal;font-weight:400;font-stretch:normal;font-size:107.067px;font-family:'Caeciliae Staffless';-inkscape-font-specification:'Caeciliae Staffless';fill:#fff" x="63.75" y="215.613"/><g style="fill:#fff"><text xml:space="preserve" style="font-style:normal;font-variant:normal;font-weight:400;font-stretch:normal;font-size:69.3333px;font-family:Arial;-inkscape-font-specification:Arial;fill:#fff" x="100.432" y="140.09" transform="translate(0 7.367)"><tspan x="100.432" y="140.09" style="font-style:italic;font-weight:400;font-size:69.3333px;fill:#fff">Priest:</tspan><tspan x="100.432" y="226.756" style="font-weight:700;font-size:69.3333px;fill:#fff">Go forth, the Mass is ended,</tspan><tspan x="100.432" y="313.423" style="font-weight:700;font-size:69.3333px;fill:#fff">alleluia, alleluia.</tspan><tspan x="100.432" y="400.258" style="font-style:italic;font-weight:400;font-size:69.3333px;fill:#fff">All:</tspan></text></g></svg>