<svg width="1280" height="720" xmlns:xlink="http://www.w3.org/1999/xlink" xmlns="http://www.w3.org/2000/svg"><defs><path id="a" d="M63.752 65.215h1152.5v1.467H63.752zm0 26.987h1152.5v1.467H63.752zm0 27.138h1152.5v1.467H63.752zm0 27.13h1152.5v1.467H63.752z"/></defs><g transform="translate(0 55.271)" style="fill:#fff"><text xml:space="preserve" style="font-style:normal;font-variant:normal;font-weight:400;font-stretch:normal;font-size:69.3333px;font-family:Arial;-inkscape-font-specification:Arial;fill:#fff" x="98.435" y="566.09"><tspan x="98.435" y="566.09" style="font-weight:700;font-size:69.3333px;fill:#fff">Glory to you, O Lord.</tspan></text><use xlink:href="#a" transform="translate(-.002 327.676)" style="font-weight:700;font-size:69.333px;font-family:Arial;fill:#fff"/><text xml:space="preserve" style="font-size:108.667px;font-family:'Caeciliae Staffless';-inkscape-font-specification:'Caeciliae Staffless';text-align:start;writing-mode:lr-tb;direction:ltr;text-anchor:start;fill:#fff" x="63.75" y="474.473"><tspan x="63.75" y="474.473">5d===================================3p=======5p==========||</tspan></text><path style="font-size:108.667px;font-family:'Caeciliae Staffless';-inkscape-font-specification:'Caeciliae Staffless';fill:#fff" d="M193.719 412.425c-4.637 0-6.955 1.34-6.955 4.02v13.15c1.52-1.521 3.84-2.283 6.955-2.283s5.431.762 6.953 2.283v-13.15c0-2.68-2.317-4.02-6.953-4.02zm-9.737.022v17.252h1.303v-17.252zm18.168 0v17.252h1.303v-17.252zm-8.44 2.586c2.903 0 4.354.932 4.354 2.799v7.535c-1.217-.444-2.664-.668-4.345-.668-1.686 0-3.137.225-4.356.67h-.004v-7.537c0-1.867 1.45-2.8 4.352-2.8z"/></g><text xml:space="preserve" style="font-style:normal;font-variant:normal;font-weight:400;font-stretch:normal;font-size:107.067px;font-family:'Caeciliae Staffless';-inkscape-font-specification:'Caeciliae Staffless';fill:#fff" x="63.75" y="215.613"/><g style="fill:#fff"><text xml:space="preserve" style="font-style:normal;font-variant:normal;font-weight:400;font-stretch:normal;font-size:69.3333px;font-family:Arial;-inkscape-font-specification:Arial;fill:#fff" x="100.432" y="140.09" transform="translate(0 7.367)"><tspan x="100.432" y="140.09" style="font-style:italic;font-weight:400;font-size:69.3333px;fill:#fff">Priest:</tspan><tspan x="100.432" y="226.756" style="font-weight:700;font-size:69.3333px;fill:#fff">A reading from the holy Gospel</tspan><tspan x="100.432" y="313.423" style="font-weight:700;font-size:69.3333px;fill:#fff">according to John.</tspan><tspan x="100.432" y="400.258" style="font-style:italic;font-weight:400;font-size:69.3333px;fill:#fff">All:</tspan></text></g></svg>