<?xml version="1.0" encoding="UTF-8" standalone="no"?>
<!-- Created with Inkscape (http://www.inkscape.org/) -->

<svg
   width="4.2333374mm"
   height="4.2333336mm"
   viewBox="0 0 4.2333374 4.2333336"
   version="1.1"
   id="svg5"
   xml:space="preserve"
   xmlns="http://www.w3.org/2000/svg"
   xmlns:svg="http://www.w3.org/2000/svg"><defs
     id="defs2" /><g
     id="layer9"
     transform="translate(-49.741669,-42.333336)"><rect
       style="opacity:1;fill:none;fill-opacity:1;stroke:none;stroke-width:0.0529167;stroke-linecap:square;stroke-linejoin:miter;stroke-miterlimit:0;stroke-dasharray:none;stroke-opacity:1;paint-order:markers stroke fill"
       id="rect26947"
       width="4.2333374"
       height="4.2333336"
       x="49.741669"
       y="42.333336" /><path
       id="path26233-5"
       d="m 52.757501,46.149154 c -0.222133,0 -0.414242,-0.06449 -0.549987,-0.193448 -0.135728,-0.128958 -0.203613,-0.299981 -0.203613,-0.513043 v -1.993299 c 0,-0.207461 0.06786,-0.375671 0.203613,-0.504632 0.135727,-0.128958 0.327851,-0.19345 0.549987,-0.19345 0.259152,0 0.388728,0.114948 0.388728,0.344833 v 1.110191 c -0.191283,-0.151383 -0.268903,-0.227085 -0.447841,-0.227085 -0.148091,0 -0.243603,0.04487 -0.33616,0.134569 -0.09256,0.0897 -0.138835,0.199043 -0.138835,0.32801 0,0.123364 0.04628,0.232686 0.138835,0.328011 0.09256,0.09533 0.188074,0.142984 0.33616,0.142984 0.203619,0 0.281242,-0.07569 0.447841,-0.227084 v 1.110191 c 0,0.106532 -0.03704,0.19343 -0.111085,0.260726 -0.06788,0.06168 -0.160437,0.09252 -0.277661,0.09252 z m -1.246963,-1.144659 c -0.106371,-0.0627 -0.1723,-0.113624 -0.345077,-0.113624 -0.209789,0 -0.422014,0.06399 -0.54542,0.148086 v -0.941979 c 0,-0.196252 0.212211,-0.323606 0.54542,-0.323606 0.339369,0 0.559498,0.127353 0.559498,0.323606 v 2.085813 c 0,0.243893 -0.214421,0.274229 -0.214421,0.120331 z"
       style="font-size:4.23333px;line-height:1.25;font-family:'Caeciliae Staffless';-inkscape-font-specification:'Caeciliae Staffless';text-align:center;letter-spacing:0px;word-spacing:0px;text-anchor:middle;display:none;fill:#912828;stroke-width:0.264583" /><path
       style="font-size:4.23333px;line-height:1.25;font-family:'Caeciliae Staffless';-inkscape-font-specification:'Caeciliae Staffless';text-align:center;letter-spacing:0px;word-spacing:0px;text-anchor:middle;fill:#912828;stroke-width:0.264583"
       d="m 51.591803,46.155382 v -1.147398 c -0.09023,-0.08382 -0.17709,-0.125737 -0.334999,-0.125737 -0.191743,0 -0.34401,0.0393 -0.456799,0.117889 v -0.880197 c 0,-0.183375 0.152266,-0.275062 0.456799,-0.275062 0.310172,0 0.465258,0.09169 0.465258,0.275062 v 1.949006 c 0,0.180974 -0.130259,0.223005 -0.130259,0.08644 z"
       id="path1725" /><path
       style="font-size:4.23333px;line-height:1.25;font-family:'Caeciliae Staffless';-inkscape-font-specification:'Caeciliae Staffless';text-align:center;letter-spacing:0px;word-spacing:0px;text-anchor:middle;fill:#912828;stroke-width:0.264583"
       d="m 52.603558,46.0375 c -0.178921,0 -0.323051,-0.06025 -0.432392,-0.180761 -0.109337,-0.120507 -0.164006,-0.280304 -0.164006,-0.479392 v -1.862553 c 0,-0.193853 0.05467,-0.351031 0.164006,-0.471534 0.109337,-0.120507 0.253467,-0.180761 0.432392,-0.180761 0.208741,0 0.313112,0.107404 0.313112,0.322213 v 1.037377 c -0.154072,-0.141461 -0.257698,-0.212192 -0.401829,-0.212192 -0.11928,0 -0.19139,0.03364 -0.26594,0.117469 -0.07455,0.08382 -0.12837,0.194259 -0.12837,0.314765 0,0.115261 0.05382,0.225694 0.12837,0.314765 0.07455,0.08907 0.146663,0.125333 0.26594,0.125333 0.164013,0 0.267639,-0.07073 0.401829,-0.21219 v 1.037374 c 0,0.09954 -0.02982,0.18075 -0.08947,0.243625 -0.05467,0.05763 -0.129218,0.08645 -0.223653,0.08645 z"
       id="path1719" /></g></svg>
