<?xml version="1.0" encoding="UTF-8" standalone="no"?>
<!-- Created with Inkscape (http://www.inkscape.org/) -->

<svg
   width="4.2333336mm"
   height="4.2333331mm"
   viewBox="0 0 4.2333336 4.2333332"
   version="1.1"
   id="svg5"
   xml:space="preserve"
   xmlns="http://www.w3.org/2000/svg"
   xmlns:svg="http://www.w3.org/2000/svg"><defs
     id="defs2" /><g
     id="layer11"
     transform="translate(-49.741669,-47.625)"><rect
       style="fill:none;fill-opacity:1;stroke:none;stroke-width:0.0529167;stroke-linecap:square;stroke-linejoin:miter;stroke-miterlimit:0;stroke-dasharray:none;stroke-opacity:1;paint-order:markers stroke fill"
       id="rect26947-4"
       width="4.2333336"
       height="4.2333331"
       x="49.741669"
       y="47.625" /><path
       id="path1827-7-0"
       style="font-size:4.23333px;line-height:1.25;font-family:'Caeciliae Staffless';-inkscape-font-specification:'Caeciliae Staffless';text-align:center;letter-spacing:0px;word-spacing:0px;text-anchor:middle;fill:#912828;stroke-width:0.264582"
       d="m 51.091958,48.937138 c 0.158559,0 0.237844,0.05261 0.237844,0.157852 v 1.170696 h -0.124091 v -0.348951 c 0,-0.127392 -0.06549,-0.207324 -0.196464,-0.207324 -0.144761,0 -0.258517,0.03878 -0.341244,0.116325 v -0.581194 c 0,-0.07754 0.04137,-0.146782 0.124091,-0.207707 0.08272,-0.06647 0.182698,-0.0997 0.299884,-0.0997 z m 0.237763,2.039954 c -0.06203,0.10524 -0.182678,0.18831 -0.361923,0.24925 -0.172356,0.06094 -0.306778,0.09693 -0.403291,0.107999 -0.09654,0.0055 -0.186152,0.0082 -0.26886,0.0082 h -0.01019 c -0.186132,0 -0.279201,-0.07201 -0.279201,-0.216015 v -1.267404 c 0.05515,0.07754 0.168902,0.116325 0.341245,0.116325 0.179244,0 0.375714,-0.03046 0.589425,-0.0914 0.213709,-0.06094 0.344691,-0.141838 0.392946,-0.291376 z" /><path
       id="path26233-7-0-3"
       style="font-size:4.23333px;line-height:1.25;font-family:'Caeciliae Staffless';-inkscape-font-specification:'Caeciliae Staffless';text-align:center;letter-spacing:0px;word-spacing:0px;text-anchor:middle;fill:#912828;stroke-width:0.264583"
       d="m 53.783439,48.661142 c -0.04261,0.03727 -0.09582,0.05587 -0.159704,0.05587 -0.05856,0 -0.109125,-0.01867 -0.151699,-0.05587 -0.04259,-0.04257 -0.06389,-0.0958 -0.06389,-0.159702 0,-0.06389 0.02128,-0.114435 0.06389,-0.151698 0.04261,-0.04258 0.09316,-0.06389 0.151699,-0.06389 0.06389,0 0.117114,0.02131 0.159704,0.06389 0.04261,0.03727 0.06389,0.08779 0.06389,0.151698 0,0.06389 -0.02128,0.117114 -0.06389,0.159702 z m -1.263646,-0.383839 c 0.440976,0 0.661463,0.157007 0.661463,0.369863 v 1.313862 c -0.144692,-0.120825 -0.365181,-0.231786 -0.661463,-0.231786 -0.296278,0 -0.516766,0.110959 -0.66146,0.231786 v -1.313862 c 0,-0.212865 0.220488,-0.369863 0.66146,-0.369863 z" /></g></svg>
